<svg xmlns="http://www.w3.org/2000/svg" xmlns:xlink="http://www.w3.org/1999/xlink" xmlns:s="https://github.com/nturley/netlistsvg" width="711" height="387">
  <style>svg {
    stroke:#000;
    fill:none;
  }
  text {
    fill:#000;
    stroke:none;
    font-size:10px;
    font-weight: bold;
    font-family: "Courier New", monospace;
  }
  .nodelabel {
    text-anchor: middle;
  }
  .inputPortLabel {
    text-anchor: end;
  }
  .splitjoinBody {
    fill:#000;
  }</style>
  <g s:type="add" transform="translate(499.6666666666667,312)" s:width="25" s:height="25" id="cell_$add$src/accumulator.v:32$4">
    <s:alias val="$add"/>
    <circle r="12.5" cx="12.5" cy="12.5" class="cell_$add$src/accumulator.v:32$4"/>
    <line x1="7.5" x2="17.5" y1="12.5" y2="12.5" class="cell_$add$src/accumulator.v:32$4"/>
    <line x1="12.5" x2="12.5" y1="7.5" y2="17.5" class="cell_$add$src/accumulator.v:32$4"/>
    <g s:x="3" s:y="5" s:pid="A"/>
    <g s:x="3" s:y="20" s:pid="B"/>
    <g s:x="25" s:y="12.5" s:pid="Y"/>
  </g>
  <g s:type="add" transform="translate(563,339)" s:width="25" s:height="25" id="cell_$add$src/accumulator.v:32$5">
    <s:alias val="$add"/>
    <circle r="12.5" cx="12.5" cy="12.5" class="cell_$add$src/accumulator.v:32$5"/>
    <line x1="7.5" x2="17.5" y1="12.5" y2="12.5" class="cell_$add$src/accumulator.v:32$5"/>
    <line x1="12.5" x2="12.5" y1="7.5" y2="17.5" class="cell_$add$src/accumulator.v:32$5"/>
    <g s:x="3" s:y="5" s:pid="A"/>
    <g s:x="3" s:y="20" s:pid="B"/>
    <g s:x="25" s:y="12.5" s:pid="Y"/>
  </g>
  <g s:type="and" transform="translate(433,237.5)" s:width="30" s:height="25" id="cell_$and$src/accumulator.v:29$2">
    <s:alias val="$and"/>
    <s:alias val="$logic_and"/>
    <s:alias val="$_AND_"/>
    <path d="M0,0 L0,25 L15,25 A15 12.5 0 0 0 15,0 Z" class="cell_$and$src/accumulator.v:29$2"/>
    <g s:x="0" s:y="5" s:pid="A"/>
    <g s:x="0" s:y="20" s:pid="B"/>
    <g s:x="30" s:y="12.5" s:pid="Y"/>
  </g>
  <g s:type="and" transform="translate(433,319.5)" s:width="30" s:height="25" id="cell_$and$src/accumulator.v:30$3">
    <s:alias val="$and"/>
    <s:alias val="$logic_and"/>
    <s:alias val="$_AND_"/>
    <path d="M0,0 L0,25 L15,25 A15 12.5 0 0 0 15,0 Z" class="cell_$and$src/accumulator.v:30$3"/>
    <g s:x="0" s:y="5" s:pid="A"/>
    <g s:x="0" s:y="20" s:pid="B"/>
    <g s:x="30" s:y="12.5" s:pid="Y"/>
  </g>
  <g s:type="eq" transform="translate(300.6666666666667,109)" s:width="25" s:height="25" id="cell_$eq$src/accumulator.v:38$8">
    <s:alias val="$eq"/>
    <circle r="12.5" cx="12.5" cy="12.5" class="cell_$eq$src/accumulator.v:38$8"/>
    <line x1="7.5" x2="17.5" y1="10" y2="10" class="cell_$eq$src/accumulator.v:38$8"/>
    <line x1="7.5" x2="17.5" y1="15" y2="15" class="cell_$eq$src/accumulator.v:38$8"/>
    <g s:x="3" s:y="5" s:pid="A"/>
    <g s:x="3" s:y="20" s:pid="B"/>
    <g s:x="25" s:y="12.5" s:pid="Y"/>
  </g>
  <g s:type="dff" transform="translate(498,189)" s:width="30" s:height="40" id="cell_$procdff$23">
    <s:alias val="$dff"/>
    <s:alias val="$_DFF_"/>
    <s:alias val="$_DFF_P_"/>
    <rect width="30" height="40" x="0" y="0" class="cell_$procdff$23"/>
    <path d="M0,35 L5,30 L0,25" class="cell_$procdff$23"/>
    <g s:x="30" s:y="10" s:pid="Q"/>
    <g s:x="0" s:y="30" s:pid="CLK"/>
    <g s:x="0" s:y="30" s:pid="C"/>
    <g s:x="0" s:y="10" s:pid="D"/>
  </g>
  <g s:type="dff" transform="translate(232,104)" s:width="30" s:height="40" id="cell_$procdff$24">
    <s:alias val="$dff"/>
    <s:alias val="$_DFF_"/>
    <s:alias val="$_DFF_P_"/>
    <rect width="30" height="40" x="0" y="0" class="cell_$procdff$24"/>
    <path d="M0,35 L5,30 L0,25" class="cell_$procdff$24"/>
    <g s:x="30" s:y="10" s:pid="Q"/>
    <g s:x="0" s:y="30" s:pid="CLK"/>
    <g s:x="0" s:y="30" s:pid="C"/>
    <g s:x="0" s:y="10" s:pid="D"/>
  </g>
  <g s:type="mux" transform="translate(105.33333333333333,23)" s:width="20" s:height="40" id="cell_$procmux$10">
    <s:alias val="$pmux"/>
    <s:alias val="$mux"/>
    <s:alias val="$_MUX_"/>
    <path d="M0,0 L20,10 L20,30 L0,40 Z" class="cell_$procmux$10"/>
    <g s:x="0" s:y="10" s:pid="A"/>
    <g s:x="0" s:y="30" s:pid="B"/>
    <g s:x="10" s:y="35" s:pid="S"/>
    <g s:x="20" s:y="20" s:pid="Y"/>
  </g>
  <g s:type="mux" transform="translate(371.3333333333333,53)" s:width="20" s:height="40" id="cell_$procmux$13">
    <s:alias val="$pmux"/>
    <s:alias val="$mux"/>
    <s:alias val="$_MUX_"/>
    <path d="M0,0 L20,10 L20,30 L0,40 Z" class="cell_$procmux$13"/>
    <g s:x="0" s:y="10" s:pid="A"/>
    <g s:x="0" s:y="30" s:pid="B"/>
    <g s:x="10" s:y="35" s:pid="S"/>
    <g s:x="20" s:y="20" s:pid="Y"/>
  </g>
  <g s:type="mux" transform="translate(439.6666666666667,43)" s:width="20" s:height="40" id="cell_$procmux$15">
    <s:alias val="$pmux"/>
    <s:alias val="$mux"/>
    <s:alias val="$_MUX_"/>
    <path d="M0,0 L20,10 L20,30 L0,40 Z" class="cell_$procmux$15"/>
    <g s:x="0" s:y="10" s:pid="A"/>
    <g s:x="0" s:y="30" s:pid="B"/>
    <g s:x="10" s:y="35" s:pid="S"/>
    <g s:x="20" s:y="20" s:pid="Y"/>
  </g>
  <g s:type="mux" transform="translate(170.33333333333334,94)" s:width="20" s:height="40" id="cell_$procmux$21">
    <s:alias val="$pmux"/>
    <s:alias val="$mux"/>
    <s:alias val="$_MUX_"/>
    <path d="M0,0 L20,10 L20,30 L0,40 Z" class="cell_$procmux$21"/>
    <g s:x="0" s:y="10" s:pid="A"/>
    <g s:x="0" s:y="30" s:pid="B"/>
    <g s:x="10" s:y="35" s:pid="S"/>
    <g s:x="20" s:y="20" s:pid="Y"/>
  </g>
  <g s:type="inputExt" transform="translate(297,242.5)" s:width="30" s:height="20" id="cell_w_read">
    <text x="15" y="-4" class="nodelabel cell_w_read" s:attribute="ref">w_read</text>
    <s:alias val="$_inputExt_"/>
    <path d="M0,0 L0,20 L15,20 L30,10 L15,0 Z" class="cell_w_read"/>
    <g s:x="28" s:y="10" s:pid="Y"/>
  </g>
  <g s:type="inputExt" transform="translate(297,319.5)" s:width="30" s:height="20" id="cell_spk_in">
    <text x="15" y="-4" class="nodelabel cell_spk_in" s:attribute="ref">spk_in</text>
    <s:alias val="$_inputExt_"/>
    <path d="M0,0 L0,20 L15,20 L30,10 L15,0 Z" class="cell_spk_in"/>
    <g s:x="28" s:y="10" s:pid="Y"/>
  </g>
  <g s:type="inputExt" transform="translate(368,189)" s:width="30" s:height="20" id="cell_oen">
    <text x="15" y="-4" class="nodelabel cell_oen" s:attribute="ref">oen</text>
    <s:alias val="$_inputExt_"/>
    <path d="M0,0 L0,20 L15,20 L30,10 L15,0 Z" class="cell_oen"/>
    <g s:x="28" s:y="10" s:pid="Y"/>
  </g>
  <g s:type="outputExt" transform="translate(563,189)" s:width="30" s:height="20" id="cell_accumulated_potential">
    <text x="15" y="-4" class="nodelabel cell_accumulated_potential" s:attribute="ref">accumulated_potential</text>
    <s:alias val="$_outputExt_"/>
    <path d="M30,0 L30,20 L15,20 L0,10 L15,0 Z" class="cell_accumulated_potential"/>
    <g s:x="0" s:y="10" s:pid="A"/>
  </g>
  <g s:type="inputExt" transform="translate(167,209)" s:width="30" s:height="20" id="cell_clk">
    <text x="15" y="-4" class="nodelabel cell_clk" s:attribute="ref">clk</text>
    <s:alias val="$_inputExt_"/>
    <path d="M0,0 L0,20 L15,20 L30,10 L15,0 Z" class="cell_clk"/>
    <g s:x="28" s:y="10" s:pid="Y"/>
  </g>
  <g s:type="inputExt" transform="translate(102,179)" s:width="30" s:height="20" id="cell_reset">
    <text x="15" y="-4" class="nodelabel cell_reset" s:attribute="ref">reset</text>
    <s:alias val="$_inputExt_"/>
    <path d="M0,0 L0,20 L15,20 L30,10 L15,0 Z" class="cell_reset"/>
    <g s:x="28" s:y="10" s:pid="Y"/>
  </g>
  <g s:type="constant" transform="translate(32,73)" s:width="30" s:height="20" id="cell_11111111">
    <text x="15" y="-4" class="nodelabel cell_11111111" s:attribute="ref">0xff</text>
    <s:alias val="$_constant_"/>
    <rect width="30" height="20" class="cell_11111111"/>
    <g s:x="30" s:y="10" s:pid="Y"/>
  </g>
  <g s:type="constant" transform="translate(102,114)" s:width="30" s:height="20" id="cell_00000000">
    <text x="15" y="-4" class="nodelabel cell_00000000" s:attribute="ref">0x0</text>
    <s:alias val="$_constant_"/>
    <rect width="30" height="20" class="cell_00000000"/>
    <g s:x="30" s:y="10" s:pid="Y"/>
  </g>
  <g s:type="split" transform="translate(382.3333333333333,232)" s:width="5" s:height="40" id="cell_$split$,2,3,">
    <rect width="5" height="40" class="splitjoinBody" s:generic="body"/>
    <s:alias val="$_split_"/>
    <g s:x="0" s:y="20" s:pid="in"/>
    <g transform="translate(4,10)" s:x="4" s:y="10" s:pid="out0">
      <text x="5" y="-4">0</text>
    </g>
    <g transform="translate(4,30)" s:x="4" s:y="10" s:pid="out0">
      <text x="5" y="-4">1</text>
    </g>
  </g>
  <g s:type="split" transform="translate(382.3333333333333,309)" s:width="5" s:height="40" id="cell_$split$,4,5,">
    <rect width="5" height="40" class="splitjoinBody" s:generic="body"/>
    <s:alias val="$_split_"/>
    <g s:x="0" s:y="20" s:pid="in"/>
    <g transform="translate(4,10)" s:x="4" s:y="10" s:pid="out0">
      <text x="5" y="-4">0</text>
    </g>
    <g transform="translate(4,30)" s:x="4" s:y="10" s:pid="out0">
      <text x="5" y="-4">1</text>
    </g>
  </g>
  <g s:type="split" transform="translate(38,324)" s:width="5" s:height="40" id="cell_$split$,29,30,31,32,33,34,35,36,37,">
    <rect width="5" height="40" class="splitjoinBody" s:generic="body"/>
    <s:alias val="$_split_"/>
    <g s:x="0" s:y="20" s:pid="in"/>
    <g transform="translate(4,10)" s:x="4" s:y="10" s:pid="out0">
      <text x="5" y="-4">0:7</text>
    </g>
    <g transform="translate(4,30)" s:x="4" s:y="10" s:pid="out0">
      <text x="5" y="-4">8</text>
    </g>
  </g>
  <line x1="463" x2="473" y1="250" y2="250" class="net_17"/>
  <line x1="473" x2="473" y1="250" y2="317" class="net_17"/>
  <line x1="473" x2="502.6666666666667" y1="317" y2="317" class="net_17"/>
  <line x1="463" x2="502.6666666666667" y1="332" y2="332" class="net_18"/>
  <line x1="524.6666666666667" x2="538" y1="324.5" y2="324.5" class="net_19,20"/>
  <line x1="538" x2="538" y1="324.5" y2="344" class="net_19,20"/>
  <line x1="538" x2="566" y1="344" y2="344" class="net_19,20"/>
  <line x1="262" x2="272" y1="114" y2="114" class="net_21,22,23,24,25,26,27,28"/>
  <line x1="272" x2="272" y1="114" y2="359" class="net_21,22,23,24,25,26,27,28"/>
  <circle cx="272" cy="114" r="2" style="fill:#000" class="net_21,22,23,24,25,26,27,28"/>
  <line x1="272" x2="566" y1="359" y2="359" class="net_21,22,23,24,25,26,27,28"/>
  <line x1="262" x2="303.6666666666667" y1="114" y2="114" class="net_21,22,23,24,25,26,27,28"/>
  <line x1="387.3333333333333" x2="433" y1="242.5" y2="242.5" class="net_2"/>
  <line x1="387.3333333333333" x2="408" y1="319.5" y2="319.5" class="net_4"/>
  <line x1="408" x2="408" y1="319.5" y2="257.5" class="net_4"/>
  <line x1="408" x2="433" y1="257.5" y2="257.5" class="net_4"/>
  <line x1="387.3333333333333" x2="418" y1="262.5" y2="262.5" class="net_3"/>
  <line x1="418" x2="418" y1="262.5" y2="324.5" class="net_3"/>
  <line x1="418" x2="433" y1="324.5" y2="324.5" class="net_3"/>
  <line x1="387.3333333333333" x2="433" y1="339.5" y2="339.5" class="net_5"/>
  <line x1="62" x2="282" y1="83" y2="83" class="net_71,72,73,74,75,76,77,78"/>
  <line x1="282" x2="282" y1="83" y2="129" class="net_71,72,73,74,75,76,77,78"/>
  <circle cx="282" cy="83" r="2" style="fill:#000" class="net_71,72,73,74,75,76,77,78"/>
  <line x1="282" x2="303.6666666666667" y1="129" y2="129" class="net_71,72,73,74,75,76,77,78"/>
  <line x1="62" x2="72" y1="83" y2="83" class="net_71,72,73,74,75,76,77,78"/>
  <line x1="72" x2="72" y1="83" y2="53" class="net_71,72,73,74,75,76,77,78"/>
  <circle cx="72" cy="83" r="2" style="fill:#000" class="net_71,72,73,74,75,76,77,78"/>
  <circle cx="72" cy="53" r="2" style="fill:#000" class="net_71,72,73,74,75,76,77,78"/>
  <line x1="72" x2="105.33333333333333" y1="53" y2="53" class="net_71,72,73,74,75,76,77,78"/>
  <line x1="62" x2="72" y1="83" y2="83" class="net_71,72,73,74,75,76,77,78"/>
  <line x1="72" x2="72" y1="83" y2="12" class="net_71,72,73,74,75,76,77,78"/>
  <line x1="72" x2="152" y1="12" y2="12" class="net_71,72,73,74,75,76,77,78"/>
  <line x1="152" x2="152" y1="12" y2="83" class="net_71,72,73,74,75,76,77,78"/>
  <circle cx="152" cy="83" r="2" style="fill:#000" class="net_71,72,73,74,75,76,77,78"/>
  <line x1="152" x2="371.3333333333333" y1="83" y2="83" class="net_71,72,73,74,75,76,77,78"/>
  <line x1="195" x2="498" y1="219" y2="219" class="net_15"/>
  <line x1="195" x2="207" y1="219" y2="219" class="net_15"/>
  <line x1="207" x2="207" y1="219" y2="134" class="net_15"/>
  <circle cx="207" cy="219" r="2" style="fill:#000" class="net_15"/>
  <line x1="207" x2="232" y1="134" y2="134" class="net_15"/>
  <line x1="459.6666666666667" x2="473" y1="63" y2="63" class="net_39,40,41,42,43,44,45,46"/>
  <line x1="473" x2="473" y1="63" y2="199" class="net_39,40,41,42,43,44,45,46"/>
  <line x1="473" x2="498" y1="199" y2="199" class="net_39,40,41,42,43,44,45,46"/>
  <line x1="190.33333333333334" x2="232" y1="114" y2="114" class="net_47,48,49,50,51,52,53,54"/>
  <line x1="43" x2="82" y1="334.5" y2="334.5" class="net_29,30,31,32,33,34,35,36"/>
  <line x1="82" x2="82" y1="334.5" y2="33" class="net_29,30,31,32,33,34,35,36"/>
  <line x1="82" x2="105.33333333333333" y1="33" y2="33" class="net_29,30,31,32,33,34,35,36"/>
  <line x1="43" x2="92" y1="354.5" y2="354.5" class="net_37"/>
  <line x1="92" x2="92" y1="354.5" y2="73" class="net_37"/>
  <line x1="92" x2="115.33333333333333" y1="73" y2="73" class="net_37"/>
  <line x1="115.33333333333333" x2="115.33333333333333" y1="73" y2="58" class="net_37"/>
  <line x1="125.33333333333333" x2="343" y1="43" y2="43" class="net_55,56,57,58,59,60,61,62"/>
  <line x1="343" x2="343" y1="43" y2="63" class="net_55,56,57,58,59,60,61,62"/>
  <line x1="343" x2="371.3333333333333" y1="63" y2="63" class="net_55,56,57,58,59,60,61,62"/>
  <line x1="125.33333333333333" x2="142" y1="43" y2="43" class="net_55,56,57,58,59,60,61,62"/>
  <line x1="142" x2="142" y1="43" y2="104" class="net_55,56,57,58,59,60,61,62"/>
  <circle cx="142" cy="43" r="2" style="fill:#000" class="net_55,56,57,58,59,60,61,62"/>
  <line x1="142" x2="170.33333333333334" y1="104" y2="104" class="net_55,56,57,58,59,60,61,62"/>
  <line x1="325.6666666666667" x2="381.3333333333333" y1="121.5" y2="121.5" class="net_38"/>
  <line x1="381.3333333333333" x2="381.3333333333333" y1="121.5" y2="88" class="net_38"/>
  <line x1="528" x2="538" y1="199" y2="199" class="net_7,8,9,10,11,12,13,14"/>
  <line x1="538" x2="538" y1="199" y2="33" class="net_7,8,9,10,11,12,13,14"/>
  <line x1="538" x2="418" y1="33" y2="33" class="net_7,8,9,10,11,12,13,14"/>
  <line x1="418" x2="418" y1="33" y2="53" class="net_7,8,9,10,11,12,13,14"/>
  <circle cx="538" cy="199" r="2" style="fill:#000" class="net_7,8,9,10,11,12,13,14"/>
  <line x1="418" x2="439.6666666666667" y1="53" y2="53" class="net_7,8,9,10,11,12,13,14"/>
  <line x1="528" x2="563" y1="199" y2="199" class="net_7,8,9,10,11,12,13,14"/>
  <line x1="391.3333333333333" x2="439.6666666666667" y1="73" y2="73" class="net_63,64,65,66,67,68,69,70"/>
  <line x1="396" x2="449.6666666666667" y1="199" y2="199" class="net_6"/>
  <line x1="449.6666666666667" x2="449.6666666666667" y1="199" y2="78" class="net_6"/>
  <line x1="132" x2="170.33333333333334" y1="124" y2="124" class="net_95,96,97,98,99,100,101,102"/>
  <line x1="130" x2="180.33333333333334" y1="189" y2="189" class="net_16"/>
  <line x1="180.33333333333334" x2="180.33333333333334" y1="189" y2="129" class="net_16"/>
  <line x1="325" x2="382.3333333333333" y1="252.5" y2="252.5" class="net_2,3"/>
  <line x1="325" x2="382.3333333333333" y1="329.5" y2="329.5" class="net_4,5"/>
  <line x1="588" x2="699" y1="351.5" y2="351.5" class="net_29,30,31,32,33,34,35,36,37"/>
  <line x1="699" x2="699" y1="351.5" y2="374" class="net_29,30,31,32,33,34,35,36,37"/>
  <line x1="699" x2="12" y1="374" y2="374" class="net_29,30,31,32,33,34,35,36,37"/>
  <line x1="12" x2="12" y1="374" y2="344.5" class="net_29,30,31,32,33,34,35,36,37"/>
  <line x1="12" x2="38" y1="344.5" y2="344.5" class="net_29,30,31,32,33,34,35,36,37"/>
</svg>
