<svg xmlns="http://www.w3.org/2000/svg" xmlns:xlink="http://www.w3.org/1999/xlink" xmlns:s="https://github.com/nturley/netlistsvg" width="728" height="264">
  <style>svg {
    stroke:#000;
    fill:none;
  }
  text {
    fill:#000;
    stroke:none;
    font-size:10px;
    font-weight: bold;
    font-family: "Courier New", monospace;
  }
  .nodelabel {
    text-anchor: middle;
  }
  .inputPortLabel {
    text-anchor: end;
  }
  .splitjoinBody {
    fill:#000;
  }</style>
  <g s:type="add" transform="translate(446,47)" s:width="25" s:height="25" id="cell_$add$src/neuron.v:25$2">
    <s:alias val="$add"/>
    <circle r="12.5" cx="12.5" cy="12.5" class="cell_$add$src/neuron.v:25$2"/>
    <line x1="7.5" x2="17.5" y1="12.5" y2="12.5" class="cell_$add$src/neuron.v:25$2"/>
    <line x1="12.5" x2="12.5" y1="7.5" y2="17.5" class="cell_$add$src/neuron.v:25$2"/>
    <g s:x="3" s:y="5" s:pid="A"/>
    <g s:x="3" s:y="20" s:pid="B"/>
    <g s:x="25" s:y="12.5" s:pid="Y"/>
  </g>
  <g s:type="dff" transform="translate(309,42)" s:width="30" s:height="40" id="cell_$procdff$10">
    <s:alias val="$dff"/>
    <s:alias val="$_DFF_"/>
    <s:alias val="$_DFF_P_"/>
    <rect width="30" height="40" x="0" y="0" class="cell_$procdff$10"/>
    <path d="M0,35 L5,30 L0,25" class="cell_$procdff$10"/>
    <g s:x="30" s:y="10" s:pid="Q"/>
    <g s:x="0" s:y="30" s:pid="CLK"/>
    <g s:x="0" s:y="30" s:pid="C"/>
    <g s:x="0" s:y="10" s:pid="D"/>
  </g>
  <g s:type="mux" transform="translate(161.66666666666666,22)" s:width="20" s:height="40" id="cell_$procmux$5">
    <s:alias val="$pmux"/>
    <s:alias val="$mux"/>
    <s:alias val="$_MUX_"/>
    <path d="M0,0 L20,10 L20,30 L0,40 Z" class="cell_$procmux$5"/>
    <g s:x="0" s:y="10" s:pid="A"/>
    <g s:x="0" s:y="30" s:pid="B"/>
    <g s:x="10" s:y="35" s:pid="S"/>
    <g s:x="20" s:y="20" s:pid="Y"/>
  </g>
  <g s:type="mux" transform="translate(223.33333333333334,32)" s:width="20" s:height="40" id="cell_$procmux$8">
    <s:alias val="$pmux"/>
    <s:alias val="$mux"/>
    <s:alias val="$_MUX_"/>
    <path d="M0,0 L20,10 L20,30 L0,40 Z" class="cell_$procmux$8"/>
    <g s:x="0" s:y="10" s:pid="A"/>
    <g s:x="0" s:y="30" s:pid="B"/>
    <g s:x="10" s:y="35" s:pid="S"/>
    <g s:x="20" s:y="20" s:pid="Y"/>
  </g>
  <g s:type="mux" transform="translate(571,39.5)" s:width="20" s:height="40" id="cell_$ternary$src/neuron.v:26$4">
    <s:alias val="$pmux"/>
    <s:alias val="$mux"/>
    <s:alias val="$_MUX_"/>
    <path d="M0,0 L20,10 L20,30 L0,40 Z" class="cell_$ternary$src/neuron.v:26$4"/>
    <g s:x="0" s:y="10" s:pid="A"/>
    <g s:x="0" s:y="30" s:pid="B"/>
    <g s:x="10" s:y="35" s:pid="S"/>
    <g s:x="20" s:y="20" s:pid="Y"/>
  </g>
  <g s:type="inputExt" transform="translate(285,127)" s:width="30" s:height="20" id="cell_potential_accumulated">
    <text x="15" y="-4" class="nodelabel cell_potential_accumulated" s:attribute="ref">potential_accumulated</text>
    <s:alias val="$_inputExt_"/>
    <path d="M0,0 L0,20 L15,20 L30,10 L15,0 Z" class="cell_potential_accumulated"/>
    <g s:x="28" s:y="10" s:pid="Y"/>
  </g>
  <g s:type="inputExt" transform="translate(12,42)" s:width="30" s:height="20" id="cell_potential_previous">
    <text x="15" y="-4" class="nodelabel cell_potential_previous" s:attribute="ref">potential_previous</text>
    <s:alias val="$_inputExt_"/>
    <path d="M0,0 L0,20 L15,20 L30,10 L15,0 Z" class="cell_potential_previous"/>
    <g s:x="28" s:y="10" s:pid="Y"/>
  </g>
  <g s:type="outputExt" transform="translate(626,49.5)" s:width="30" s:height="20" id="cell_potential_final">
    <text x="15" y="-4" class="nodelabel cell_potential_final" s:attribute="ref">potential_final</text>
    <s:alias val="$_outputExt_"/>
    <path d="M30,0 L30,20 L15,20 L0,10 L15,0 Z" class="cell_potential_final"/>
    <g s:x="0" s:y="10" s:pid="A"/>
  </g>
  <g s:type="inputExt" transform="translate(12,107)" s:width="30" s:height="20" id="cell_ien">
    <text x="15" y="-4" class="nodelabel cell_ien" s:attribute="ref">ien</text>
    <s:alias val="$_inputExt_"/>
    <path d="M0,0 L0,20 L15,20 L30,10 L15,0 Z" class="cell_ien"/>
    <g s:x="28" s:y="10" s:pid="Y"/>
  </g>
  <g s:type="inputExt" transform="translate(220,232)" s:width="30" s:height="20" id="cell_clk">
    <text x="15" y="-4" class="nodelabel cell_clk" s:attribute="ref">clk</text>
    <s:alias val="$_inputExt_"/>
    <path d="M0,0 L0,20 L15,20 L30,10 L15,0 Z" class="cell_clk"/>
    <g s:x="28" s:y="10" s:pid="Y"/>
  </g>
  <g s:type="inputExt" transform="translate(155,202)" s:width="30" s:height="20" id="cell_reset">
    <text x="15" y="-4" class="nodelabel cell_reset" s:attribute="ref">reset</text>
    <s:alias val="$_inputExt_"/>
    <path d="M0,0 L0,20 L15,20 L30,10 L15,0 Z" class="cell_reset"/>
    <g s:x="28" s:y="10" s:pid="Y"/>
  </g>
  <g s:type="constant" transform="translate(155,137)" s:width="30" s:height="20" id="cell_00000000">
    <text x="15" y="-4" class="nodelabel cell_00000000" s:attribute="ref">0x0</text>
    <s:alias val="$_constant_"/>
    <rect width="30" height="20" class="cell_00000000"/>
    <g s:x="30" s:y="10" s:pid="Y"/>
  </g>
  <g s:type="constant" transform="translate(506,124)" s:width="30" s:height="20" id="cell_11111111">
    <text x="15" y="-4" class="nodelabel cell_11111111" s:attribute="ref">0xff</text>
    <s:alias val="$_constant_"/>
    <rect width="30" height="20" class="cell_11111111"/>
    <g s:x="30" s:y="10" s:pid="Y"/>
  </g>
  <g s:type="split" transform="translate(512,39)" s:width="5" s:height="40" id="cell_$split$,37,38,39,40,41,42,43,44,45,">
    <rect width="5" height="40" class="splitjoinBody" s:generic="body"/>
    <s:alias val="$_split_"/>
    <g s:x="0" s:y="20" s:pid="in"/>
    <g transform="translate(4,10)" s:x="4" s:y="10" s:pid="out0">
      <text x="5" y="-4">0:7</text>
    </g>
    <g transform="translate(4,30)" s:x="4" s:y="10" s:pid="out0">
      <text x="5" y="-4">8</text>
    </g>
  </g>
  <line x1="339" x2="449" y1="52" y2="52" class="net_29,30,31,32,33,34,35,36"/>
  <line x1="339" x2="421" y1="52" y2="52" class="net_29,30,31,32,33,34,35,36"/>
  <line x1="421" x2="421" y1="52" y2="12" class="net_29,30,31,32,33,34,35,36"/>
  <line x1="421" x2="130" y1="12" y2="12" class="net_29,30,31,32,33,34,35,36"/>
  <line x1="130" x2="130" y1="12" y2="32" class="net_29,30,31,32,33,34,35,36"/>
  <circle cx="421" cy="52" r="2" style="fill:#000" class="net_29,30,31,32,33,34,35,36"/>
  <line x1="130" x2="161.66666666666666" y1="32" y2="32" class="net_29,30,31,32,33,34,35,36"/>
  <line x1="313" x2="421" y1="137" y2="137" class="net_2,3,4,5,6,7,8,9"/>
  <line x1="421" x2="421" y1="137" y2="67" class="net_2,3,4,5,6,7,8,9"/>
  <line x1="421" x2="449" y1="67" y2="67" class="net_2,3,4,5,6,7,8,9"/>
  <line x1="248" x2="260" y1="242" y2="242" class="net_27"/>
  <line x1="260" x2="260" y1="242" y2="72" class="net_27"/>
  <line x1="260" x2="309" y1="72" y2="72" class="net_27"/>
  <line x1="243.33333333333334" x2="309" y1="52" y2="52" class="net_46,47,48,49,50,51,52,53"/>
  <line x1="40" x2="161.66666666666666" y1="52" y2="52" class="net_10,11,12,13,14,15,16,17"/>
  <line x1="40" x2="171.66666666666666" y1="117" y2="117" class="net_26"/>
  <line x1="171.66666666666666" x2="171.66666666666666" y1="117" y2="57" class="net_26"/>
  <line x1="181.66666666666666" x2="223.33333333333334" y1="42" y2="42" class="net_54,55,56,57,58,59,60,61"/>
  <line x1="185" x2="195" y1="147" y2="147" class="net_62,63,64,65,66,67,68,69"/>
  <line x1="195" x2="195" y1="147" y2="62" class="net_62,63,64,65,66,67,68,69"/>
  <line x1="195" x2="223.33333333333334" y1="62" y2="62" class="net_62,63,64,65,66,67,68,69"/>
  <line x1="183" x2="233.33333333333334" y1="212" y2="212" class="net_28"/>
  <line x1="233.33333333333334" x2="233.33333333333334" y1="212" y2="67" class="net_28"/>
  <line x1="517" x2="571" y1="49.5" y2="49.5" class="net_37,38,39,40,41,42,43,44"/>
  <line x1="536" x2="556" y1="134" y2="134" class="net_70,71,72,73,74,75,76,77"/>
  <line x1="556" x2="556" y1="134" y2="69.5" class="net_70,71,72,73,74,75,76,77"/>
  <line x1="556" x2="571" y1="69.5" y2="69.5" class="net_70,71,72,73,74,75,76,77"/>
  <line x1="517" x2="546" y1="69.5" y2="69.5" class="net_45"/>
  <line x1="546" x2="546" y1="69.5" y2="89.5" class="net_45"/>
  <line x1="546" x2="581" y1="89.5" y2="89.5" class="net_45"/>
  <line x1="581" x2="581" y1="89.5" y2="74.5" class="net_45"/>
  <line x1="591" x2="626" y1="59.5" y2="59.5" class="net_18,19,20,21,22,23,24,25"/>
  <line x1="471" x2="512" y1="59.5" y2="59.5" class="net_37,38,39,40,41,42,43,44,45"/>
</svg>
