<svg xmlns="http://www.w3.org/2000/svg" xmlns:xlink="http://www.w3.org/1999/xlink" xmlns:s="https://github.com/nturley/netlistsvg" width="969.5" height="447.5"><style>svg {
  stroke:#000;
  fill:none;
}
text {
  fill:#000;
  stroke:none;
  font-size:10px;
  font-weight: bold;
  font-family: "Courier New", monospace;
}
line {
    stroke-linecap: round;
}
.nodelabel {
  text-anchor: middle;
}
.inputPortLabel {
  text-anchor: end;
}
.splitjoinBody {
  fill:#000;
}</style><g s:type="add" transform="translate(634.5,94)" s:width="25" s:height="25" id="cell_$add$accumulator.v:32$4"><s:alias val="$add"/><circle r="12.5" cx="12.5" cy="12.5" fill="#ffc9c3" class="cell_$add$accumulator.v:32$4"/><line x1="7.5" x2="17.5" y1="12.5" y2="12.5" class="cell_$add$accumulator.v:32$4"/><line x1="12.5" x2="12.5" y1="7.5" y2="17.5" class="cell_$add$accumulator.v:32$4"/><g s:x="2" s:y="5" s:pid="A"/><g s:x="2" s:y="20" s:pid="B"/><g s:x="26" s:y="12.5" s:pid="Y"/></g><g s:type="add" transform="translate(821.5,145.5)" s:width="25" s:height="25" id="cell_$add$accumulator.v:32$5"><s:alias val="$add"/><circle r="12.5" cx="12.5" cy="12.5" fill="#ffc9c3" class="cell_$add$accumulator.v:32$5"/><line x1="7.5" x2="17.5" y1="12.5" y2="12.5" class="cell_$add$accumulator.v:32$5"/><line x1="12.5" x2="12.5" y1="7.5" y2="17.5" class="cell_$add$accumulator.v:32$5"/><g s:x="2" s:y="5" s:pid="A"/><g s:x="2" s:y="20" s:pid="B"/><g s:x="26" s:y="12.5" s:pid="Y"/></g><g s:type="and" transform="translate(512.5,19.5)" s:width="30" s:height="25" id="cell_$and$accumulator.v:29$2"><s:alias val="$and"/><s:alias val="$logic_and"/><s:alias val="$_AND_"/><path d="M0,0 L0,25 L15,25 A15 12.5 0 0 0 15,0 Z" fill="#eebaff" class="cell_$and$accumulator.v:29$2"/><g s:x="0" s:y="5" s:pid="A"/><g s:x="0" s:y="20" s:pid="B"/><g s:x="30" s:y="12.5" s:pid="Y"/></g><g s:type="and" transform="translate(512.5,101.5)" s:width="30" s:height="25" id="cell_$and$accumulator.v:30$3"><s:alias val="$and"/><s:alias val="$logic_and"/><s:alias val="$_AND_"/><path d="M0,0 L0,25 L15,25 A15 12.5 0 0 0 15,0 Z" fill="#eebaff" class="cell_$and$accumulator.v:30$3"/><g s:x="0" s:y="5" s:pid="A"/><g s:x="0" s:y="20" s:pid="B"/><g s:x="30" s:y="12.5" s:pid="Y"/></g><g s:type="generic" transform="translate(284.5,202.5)" s:width="30" s:height="40" id="cell_$auto$ff.cc:262:slice$25"><text x="15" y="-4" class="nodelabel cell_$auto$ff.cc:262:slice$25" s:attribute="ref">$sdff-bus</text><rect width="30" height="60" s:generic="body" fill="#ffae46" rx="0" class="cell_$auto$ff.cc:262:slice$25"/><g transform="translate(0,10)" s:x="0" s:y="10" s:pid="in0" id="port_$auto$ff.cc:262:slice$25~CLK"><text x="-3" y="-4" class="inputPortLabel cell_$auto$ff.cc:262:slice$25">CLK</text></g><g transform="translate(0,30)" s:x="0" s:y="10" s:pid="in0" id="port_$auto$ff.cc:262:slice$25~D"><text x="-3" y="-4" class="inputPortLabel cell_$auto$ff.cc:262:slice$25">D</text></g><g transform="translate(0,50)" s:x="0" s:y="10" s:pid="in0" id="port_$auto$ff.cc:262:slice$25~SRST"><text x="-3" y="-4" class="inputPortLabel cell_$auto$ff.cc:262:slice$25">SRST</text></g><g transform="translate(30,10)" s:x="30" s:y="10" s:pid="out0" id="port_$auto$ff.cc:262:slice$25~Q"><text x="5" y="-4" style="fill:#000; stroke:none" class="cell_$auto$ff.cc:262:slice$25">Q</text></g></g><g s:type="generic" transform="translate(603.5,294)" s:width="30" s:height="40" id="cell_$auto$ff.cc:262:slice$27"><text x="15" y="-4" class="nodelabel cell_$auto$ff.cc:262:slice$27" s:attribute="ref">$sdffce-bus</text><rect width="30" height="80" s:generic="body" fill="#ffae46" rx="0" class="cell_$auto$ff.cc:262:slice$27"/><g transform="translate(0,10)" s:x="0" s:y="10" s:pid="in0" id="port_$auto$ff.cc:262:slice$27~CLK"><text x="-3" y="-4" class="inputPortLabel cell_$auto$ff.cc:262:slice$27">CLK</text></g><g transform="translate(0,30)" s:x="0" s:y="10" s:pid="in0" id="port_$auto$ff.cc:262:slice$27~D"><text x="-3" y="-4" class="inputPortLabel cell_$auto$ff.cc:262:slice$27">D</text></g><g transform="translate(0,50)" s:x="0" s:y="10" s:pid="in0" id="port_$auto$ff.cc:262:slice$27~EN"><text x="-3" y="-4" class="inputPortLabel cell_$auto$ff.cc:262:slice$27">EN</text></g><g transform="translate(0,70)" s:x="0" s:y="10" s:pid="in0" id="port_$auto$ff.cc:262:slice$27~SRST"><text x="-3" y="-4" class="inputPortLabel cell_$auto$ff.cc:262:slice$27">SRST</text></g><g transform="translate(30,10)" s:x="30" s:y="10" s:pid="out0" id="port_$auto$ff.cc:262:slice$27~Q"><text x="5" y="-4" style="fill:#000; stroke:none" class="cell_$auto$ff.cc:262:slice$27">Q</text></g></g><g s:type="eq" transform="translate(514.1666666666667,389.5)" s:width="25" s:height="25" id="cell_$eq$accumulator.v:38$8"><s:alias val="$eq"/><circle r="12.5" cx="12.5" cy="12.5" fill="#ffc9c3" class="cell_$eq$accumulator.v:38$8"/><line x1="7.5" x2="17.5" y1="10" y2="10" class="cell_$eq$accumulator.v:38$8"/><line x1="7.5" x2="17.5" y1="15" y2="15" class="cell_$eq$accumulator.v:38$8"/><g s:x="2" s:y="5" s:pid="A"/><g s:x="2" s:y="20" s:pid="B"/><g s:x="25" s:y="12.5" s:pid="Y"/></g><g s:type="mux-bus" transform="translate(128,295)" s:width="24" s:height="40" id="cell_$procmux$18"><s:alias val="$pmux-bus"/><s:alias val="$mux-bus"/><s:alias val="$_MUX_-bus"/><path d="M8,2 L8,0 L24,8 L24,32 L8,40 L8,38" fill="#ffffff" class="cell_$procmux$18"/><path d="M4,2 L4,0 L22,9 L22,31 L4,40 L4,38" fill="#ffffff" class="cell_$procmux$18"/><path d="M0,0 L20,10 L20,30 L0,40 Z" fill="#ffffff" class="cell_$procmux$18"/><text x="5" y="32" class="nodelabel cell_$procmux$18" s:attribute="">1</text><text x="5" y="13" class="nodelabel cell_$procmux$18" s:attribute="">0</text><g s:x="-1" s:y="10" s:pid="A"/><g s:x="-1" s:y="30" s:pid="B"/><g s:x="12" s:y="38" s:pid="S"/><g s:x="24.5" s:y="20" s:pid="Y"/></g><g s:type="inputExt" transform="translate(187.5,24.5)" s:width="30" s:height="20" id="cell_w_read"><text x="15" y="-4" class="nodelabel cell_w_read" s:attribute="ref">w_read</text><s:alias val="$_inputExt_"/><path d="M0,0 L0,20 L15,20 L30,10 L15,0 Z" fill="#8bcaff" class="cell_w_read"/><g s:x="30" s:y="10" s:pid="Y"/></g><g s:type="inputExt" transform="translate(187.5,101.5)" s:width="30" s:height="20" id="cell_spk_in"><text x="15" y="-4" class="nodelabel cell_spk_in" s:attribute="ref">spk_in</text><s:alias val="$_inputExt_"/><path d="M0,0 L0,20 L15,20 L30,10 L15,0 Z" fill="#8bcaff" class="cell_spk_in"/><g s:x="30" s:y="10" s:pid="Y"/></g><g s:type="inputExt" transform="translate(512.5,334.5)" s:width="30" s:height="20" id="cell_oen"><text x="15" y="-4" class="nodelabel cell_oen" s:attribute="ref">oen</text><s:alias val="$_inputExt_"/><path d="M0,0 L0,20 L15,20 L30,10 L15,0 Z" fill="#8bcaff" class="cell_oen"/><g s:x="30" s:y="10" s:pid="Y"/></g><g s:type="outputExt" transform="translate(821.5,294.5)" s:width="30" s:height="20" id="cell_accumulated_potential"><text x="15" y="-4" class="nodelabel cell_accumulated_potential" s:attribute="ref">accumulated_potential</text><s:alias val="$_outputExt_"/><path d="M30,0 L30,20 L15,20 L0,10 L15,0 Z" fill="#169300" class="cell_accumulated_potential"/><g s:x="0" s:y="10" s:pid="A"/></g><g s:type="inputExt" transform="translate(187.5,171.5)" s:width="30" s:height="20" id="cell_clk"><text x="15" y="-4" class="nodelabel cell_clk" s:attribute="ref">clk</text><s:alias val="$_inputExt_"/><path d="M0,0 L0,20 L15,20 L30,10 L15,0 Z" fill="#8bcaff" class="cell_clk"/><g s:x="30" s:y="10" s:pid="Y"/></g><g s:type="inputExt" transform="translate(187.5,284)" s:width="30" s:height="20" id="cell_reset"><text x="15" y="-4" class="nodelabel cell_reset" s:attribute="ref">reset</text><s:alias val="$_inputExt_"/><path d="M0,0 L0,20 L15,20 L30,10 L15,0 Z" fill="#8bcaff" class="cell_reset"/><g s:x="30" s:y="10" s:pid="Y"/></g><g s:type="constant" transform="translate(22,399.5)" s:width="30" s:height="20" id="cell_11111111"><text x="15" y="-4" class="nodelabel cell_11111111" s:attribute="ref">0xff</text><s:alias val="$_constant_"/><rect width="30" height="20" fill="#745bff" class="cell_11111111"/><g s:x="31" s:y="10" s:pid="Y"/></g><g s:type="split" transform="translate(464.5,14)" s:width="5" s:height="40" id="cell_$split$,2,3,"><rect width="5" height="40" class="splitjoinBody" s:generic="body"/><s:alias val="$_split_"/><g s:x="-1" s:y="20" s:pid="in"/><g transform="translate(5,10)" s:x="5" s:y="10" s:pid="out0"><text x="5" y="-4">0</text></g><g transform="translate(5,30)" s:x="5" s:y="10" s:pid="out0"><text x="5" y="-4">1</text></g></g><g s:type="split" transform="translate(464.5,91)" s:width="5" s:height="40" id="cell_$split$,4,5,"><rect width="5" height="40" class="splitjoinBody" s:generic="body"/><s:alias val="$_split_"/><g s:x="-1" s:y="20" s:pid="in"/><g transform="translate(5,10)" s:x="5" s:y="10" s:pid="out0"><text x="5" y="-4">0</text></g><g transform="translate(5,30)" s:x="5" s:y="10" s:pid="out0"><text x="5" y="-4">1</text></g></g><g s:type="split" transform="translate(28,314.5)" s:width="5" s:height="40" id="cell_$split$,36,37,38,39,40,41,42,43,44,"><rect width="5" height="40" class="splitjoinBody" s:generic="body"/><s:alias val="$_split_"/><g s:x="-1" s:y="20" s:pid="in"/><g transform="translate(5,10)" s:x="5" s:y="10" s:pid="out0"><text x="5" y="-4">0:7</text></g><g transform="translate(5,30)" s:x="5" s:y="10" s:pid="out0"><text x="5" y="-4">8</text></g></g><line x1="542.5" x2="552.5" y1="32" y2="32" class="net_17 width_1" style="stroke-width: 1"/><line x1="552.5" x2="552.5" y1="32" y2="99" class="net_17 width_1" style="stroke-width: 1"/><line x1="552.5" x2="636.5" y1="99" y2="99" class="net_17 width_1" style="stroke-width: 1"/><line x1="542.5" x2="636.5" y1="114" y2="114" class="net_18 width_1" style="stroke-width: 1"/><line x1="660.5" x2="796.5" y1="106.5" y2="106.5" class="net_19,20,21,22,23,24,25,26,27 width_9" style="stroke-width: 2"/><line x1="796.5" x2="796.5" y1="106.5" y2="150.5" class="net_19,20,21,22,23,24,25,26,27 width_9" style="stroke-width: 2"/><line x1="796.5" x2="823.5" y1="150.5" y2="150.5" class="net_19,20,21,22,23,24,25,26,27 width_9" style="stroke-width: 2"/><line x1="315.5" x2="438.5" y1="213" y2="213" class="net_28,29,30,31,32,33,34,35 width_8" style="stroke-width: 2"/><line x1="438.5" x2="438.5" y1="213" y2="165.5" class="net_28,29,30,31,32,33,34,35 width_8" style="stroke-width: 2"/><circle cx="438.5" cy="213" r="3" style="fill:#000" class="net_28,29,30,31,32,33,34,35 width_8"/><line x1="438.5" x2="823.5" y1="165.5" y2="165.5" class="net_28,29,30,31,32,33,34,35 width_8" style="stroke-width: 2"/><line x1="315.5" x2="487.5" y1="213" y2="213" class="net_28,29,30,31,32,33,34,35 width_8" style="stroke-width: 2"/><line x1="487.5" x2="487.5" y1="213" y2="394.5" class="net_28,29,30,31,32,33,34,35 width_8" style="stroke-width: 2"/><line x1="487.5" x2="516.1666666666667" y1="394.5" y2="394.5" class="net_28,29,30,31,32,33,34,35 width_8" style="stroke-width: 2"/><line x1="470.5" x2="512.5" y1="24.5" y2="24.5" class="net_2 width_1" style="stroke-width: 1"/><line x1="470.5" x2="487.5" y1="101.5" y2="101.5" class="net_4 width_1" style="stroke-width: 1"/><line x1="487.5" x2="487.5" y1="101.5" y2="39.5" class="net_4 width_1" style="stroke-width: 1"/><line x1="487.5" x2="512.5" y1="39.5" y2="39.5" class="net_4 width_1" style="stroke-width: 1"/><line x1="470.5" x2="497.5" y1="44.5" y2="44.5" class="net_3 width_1" style="stroke-width: 1"/><line x1="497.5" x2="497.5" y1="44.5" y2="106.5" class="net_3 width_1" style="stroke-width: 1"/><line x1="497.5" x2="512.5" y1="106.5" y2="106.5" class="net_3 width_1" style="stroke-width: 1"/><line x1="470.5" x2="512.5" y1="121.5" y2="121.5" class="net_5 width_1" style="stroke-width: 1"/><line x1="217.5" x2="233.5" y1="181.5" y2="181.5" class="net_15 width_1" style="stroke-width: 1"/><line x1="233.5" x2="233.5" y1="181.5" y2="213" class="net_15 width_1" style="stroke-width: 1"/><circle cx="233.5" cy="181.5" r="2" style="fill:#000" class="net_15 width_1"/><line x1="233.5" x2="284.5" y1="213" y2="213" class="net_15 width_1" style="stroke-width: 1"/><line x1="217.5" x2="562.5" y1="181.5" y2="181.5" class="net_15 width_1" style="stroke-width: 1"/><line x1="562.5" x2="562.5" y1="181.5" y2="304.5" class="net_15 width_1" style="stroke-width: 1"/><line x1="562.5" x2="603.5" y1="304.5" y2="304.5" class="net_15 width_1" style="stroke-width: 1"/><line x1="152.5" x2="162.5" y1="315" y2="315" class="net_45,46,47,48,49,50,51,52 width_8" style="stroke-width: 2"/><line x1="162.5" x2="162.5" y1="315" y2="233" class="net_45,46,47,48,49,50,51,52 width_8" style="stroke-width: 2"/><circle cx="162.5" cy="315" r="3" style="fill:#000" class="net_45,46,47,48,49,50,51,52 width_8"/><line x1="162.5" x2="283.5" y1="233" y2="233" class="net_45,46,47,48,49,50,51,52 width_8" style="stroke-width: 2"/><line x1="152.5" x2="448.5" y1="315" y2="315" class="net_45,46,47,48,49,50,51,52 width_8" style="stroke-width: 2"/><line x1="448.5" x2="448.5" y1="315" y2="198" class="net_45,46,47,48,49,50,51,52 width_8" style="stroke-width: 2"/><line x1="448.5" x2="552.5" y1="198" y2="198" class="net_45,46,47,48,49,50,51,52 width_8" style="stroke-width: 2"/><line x1="552.5" x2="552.5" y1="198" y2="324.5" class="net_45,46,47,48,49,50,51,52 width_8" style="stroke-width: 2"/><line x1="552.5" x2="602.5" y1="324.5" y2="324.5" class="net_45,46,47,48,49,50,51,52 width_8" style="stroke-width: 2"/><line x1="217.5" x2="233.5" y1="294" y2="294" class="net_16 width_1" style="stroke-width: 1"/><line x1="233.5" x2="233.5" y1="294" y2="253" class="net_16 width_1" style="stroke-width: 1"/><line x1="233.5" x2="283.5" y1="253" y2="253" class="net_16 width_1" style="stroke-width: 1"/><line x1="542.5" x2="602.5" y1="344.5" y2="344.5" class="net_6 width_1" style="stroke-width: 1"/><line x1="539.1666666666667" x2="552.5" y1="402" y2="402" class="net_53 width_1" style="stroke-width: 1"/><line x1="552.5" x2="552.5" y1="402" y2="364.5" class="net_53 width_1" style="stroke-width: 1"/><line x1="552.5" x2="602.5" y1="364.5" y2="364.5" class="net_53 width_1" style="stroke-width: 1"/><line x1="53" x2="516.1666666666667" y1="409.5" y2="409.5" class="net_54,55,56,57,58,59,60,61 width_8" style="stroke-width: 2"/><line x1="53" x2="73" y1="409.5" y2="409.5" class="net_54,55,56,57,58,59,60,61 width_8" style="stroke-width: 2"/><line x1="73" x2="73" y1="409.5" y2="325" class="net_54,55,56,57,58,59,60,61 width_8" style="stroke-width: 2"/><circle cx="73" cy="409.5" r="3" style="fill:#000" class="net_54,55,56,57,58,59,60,61 width_8"/><line x1="73" x2="127" y1="325" y2="325" class="net_54,55,56,57,58,59,60,61 width_8" style="stroke-width: 2"/><line x1="34" x2="63" y1="325" y2="325" class="net_36,37,38,39,40,41,42,43 width_8" style="stroke-width: 2"/><line x1="63" x2="63" y1="325" y2="305" class="net_36,37,38,39,40,41,42,43 width_8" style="stroke-width: 2"/><line x1="63" x2="127" y1="305" y2="305" class="net_36,37,38,39,40,41,42,43 width_8" style="stroke-width: 2"/><line x1="34" x2="140" y1="345" y2="345" class="net_44 width_1" style="stroke-width: 1"/><line x1="140" x2="140" y1="345" y2="333" class="net_44 width_1" style="stroke-width: 1"/><line x1="634.5" x2="821.5" y1="304.5" y2="304.5" class="net_7,8,9,10,11,12,13,14 width_8" style="stroke-width: 2"/><line x1="217.5" x2="463.5" y1="34.5" y2="34.5" class="net_2,3 width_2" style="stroke-width: 2"/><line x1="217.5" x2="463.5" y1="111.5" y2="111.5" class="net_4,5 width_2" style="stroke-width: 2"/><line x1="847.5" x2="957.5" y1="158" y2="158" class="net_36,37,38,39,40,41,42,43,44 width_9" style="stroke-width: 2"/><line x1="957.5" x2="957.5" y1="158" y2="429.5" class="net_36,37,38,39,40,41,42,43,44 width_9" style="stroke-width: 2"/><line x1="957.5" x2="12" y1="429.5" y2="429.5" class="net_36,37,38,39,40,41,42,43,44 width_9" style="stroke-width: 2"/><line x1="12" x2="12" y1="429.5" y2="335" class="net_36,37,38,39,40,41,42,43,44 width_9" style="stroke-width: 2"/><line x1="12" x2="27" y1="335" y2="335" class="net_36,37,38,39,40,41,42,43,44 width_9" style="stroke-width: 2"/><rect x="783.5" y="101.5" width="16" height="9" class="net_19,20,21,22,23,24,25,26,27 width_9 busLabel_9" style="fill: white; stroke: none"/><text x="782.5" y="109.5" class="net_19,20,21,22,23,24,25,26,27 width_9 busLabel_9">/9/</text><rect x="469.5" y="208" width="16" height="9" class="net_28,29,30,31,32,33,34,35 width_8 busLabel_8" style="fill: white; stroke: none"/><text x="468.5" y="216" class="net_28,29,30,31,32,33,34,35 width_8 busLabel_8">/8/</text><rect x="469.5" y="208" width="16" height="9" class="net_28,29,30,31,32,33,34,35 width_8 busLabel_8" style="fill: white; stroke: none"/><text x="468.5" y="216" class="net_28,29,30,31,32,33,34,35 width_8 busLabel_8">/8/</text><rect x="342.5" y="310" width="16" height="9" class="net_45,46,47,48,49,50,51,52 width_8 busLabel_8" style="fill: white; stroke: none"/><text x="341.5" y="318" class="net_45,46,47,48,49,50,51,52 width_8 busLabel_8">/8/</text><rect x="342.5" y="310" width="16" height="9" class="net_45,46,47,48,49,50,51,52 width_8 busLabel_8" style="fill: white; stroke: none"/><text x="341.5" y="318" class="net_45,46,47,48,49,50,51,52 width_8 busLabel_8">/8/</text><rect x="89" y="320" width="16" height="9" class="net_54,55,56,57,58,59,60,61 width_8 busLabel_8" style="fill: white; stroke: none"/><text x="88" y="328" class="net_54,55,56,57,58,59,60,61 width_8 busLabel_8">/8/</text><rect x="89" y="320" width="16" height="9" class="net_54,55,56,57,58,59,60,61 width_8 busLabel_8" style="fill: white; stroke: none"/><text x="88" y="328" class="net_54,55,56,57,58,59,60,61 width_8 busLabel_8">/8/</text><rect x="89" y="300" width="16" height="9" class="net_36,37,38,39,40,41,42,43 width_8 busLabel_8" style="fill: white; stroke: none"/><text x="88" y="308" class="net_36,37,38,39,40,41,42,43 width_8 busLabel_8">/8/</text><rect x="783.5" y="299.5" width="16" height="9" class="net_7,8,9,10,11,12,13,14 width_8 busLabel_8" style="fill: white; stroke: none"/><text x="782.5" y="307.5" class="net_7,8,9,10,11,12,13,14 width_8 busLabel_8">/8/</text><rect x="342.5" y="29.5" width="16" height="9" class="net_2,3 width_2 busLabel_2" style="fill: white; stroke: none"/><text x="341.5" y="37.5" class="net_2,3 width_2 busLabel_2">/2/</text><rect x="342.5" y="106.5" width="16" height="9" class="net_4,5 width_2 busLabel_2" style="fill: white; stroke: none"/><text x="341.5" y="114.5" class="net_4,5 width_2 busLabel_2">/2/</text><rect x="342.5" y="424.5" width="16" height="9" class="net_36,37,38,39,40,41,42,43,44 width_9 busLabel_9" style="fill: white; stroke: none"/><text x="341.5" y="432.5" class="net_36,37,38,39,40,41,42,43,44 width_9 busLabel_9">/9/</text></svg>