<svg xmlns="http://www.w3.org/2000/svg" xmlns:xlink="http://www.w3.org/1999/xlink" xmlns:s="https://github.com/nturley/netlistsvg" width="1097.5" height="229"><style>svg {
  stroke:#000;
  fill:none;
}
text {
  fill:#000;
  stroke:none;
  font-size:10px;
  font-weight: bold;
  font-family: "Courier New", monospace;
}
line {
    stroke-linecap: round;
}
.nodelabel {
  text-anchor: middle;
}
.inputPortLabel {
  text-anchor: end;
}
.splitjoinBody {
  fill:#000;
}</style><g s:type="add" transform="translate(464,56)" s:width="25" s:height="25" id="cell_$add$neuron.v:25$2"><s:alias val="$add"/><circle r="12.5" cx="12.5" cy="12.5" fill="#ffc9c3" class="cell_$add$neuron.v:25$2"/><line x1="7.5" x2="17.5" y1="12.5" y2="12.5" class="cell_$add$neuron.v:25$2"/><line x1="12.5" x2="12.5" y1="7.5" y2="17.5" class="cell_$add$neuron.v:25$2"/><g s:x="2" s:y="5" s:pid="A"/><g s:x="2" s:y="20" s:pid="B"/><g s:x="26" s:y="12.5" s:pid="Y"/></g><g s:type="generic" transform="translate(246,50.5)" s:width="30" s:height="40" id="cell_$auto$ff.cc:262:slice$12"><text x="15" y="-4" class="nodelabel cell_$auto$ff.cc:262:slice$12" s:attribute="ref">$sdffe-bus</text><rect width="30" height="80" s:generic="body" fill="#ffae46" rx="0" class="cell_$auto$ff.cc:262:slice$12"/><g transform="translate(0,10)" s:x="0" s:y="10" s:pid="in0" id="port_$auto$ff.cc:262:slice$12~CLK"><text x="-3" y="-4" class="inputPortLabel cell_$auto$ff.cc:262:slice$12">CLK</text></g><g transform="translate(0,30)" s:x="0" s:y="10" s:pid="in0" id="port_$auto$ff.cc:262:slice$12~D"><text x="-3" y="-4" class="inputPortLabel cell_$auto$ff.cc:262:slice$12">D</text></g><g transform="translate(0,50)" s:x="0" s:y="10" s:pid="in0" id="port_$auto$ff.cc:262:slice$12~EN"><text x="-3" y="-4" class="inputPortLabel cell_$auto$ff.cc:262:slice$12">EN</text></g><g transform="translate(0,70)" s:x="0" s:y="10" s:pid="in0" id="port_$auto$ff.cc:262:slice$12~SRST"><text x="-3" y="-4" class="inputPortLabel cell_$auto$ff.cc:262:slice$12">SRST</text></g><g transform="translate(30,10)" s:x="30" s:y="10" s:pid="out0" id="port_$auto$ff.cc:262:slice$12~Q"><text x="5" y="-4" style="fill:#000; stroke:none" class="cell_$auto$ff.cc:262:slice$12">Q</text></g></g><g s:type="mux-bus" transform="translate(797,58.5)" s:width="24" s:height="40" id="cell_$ternary$neuron.v:26$4"><s:alias val="$pmux-bus"/><s:alias val="$mux-bus"/><s:alias val="$_MUX_-bus"/><path d="M8,2 L8,0 L24,8 L24,32 L8,40 L8,38" fill="#ffffff" class="cell_$ternary$neuron.v:26$4"/><path d="M4,2 L4,0 L22,9 L22,31 L4,40 L4,38" fill="#ffffff" class="cell_$ternary$neuron.v:26$4"/><path d="M0,0 L20,10 L20,30 L0,40 Z" fill="#ffffff" class="cell_$ternary$neuron.v:26$4"/><text x="5" y="32" class="nodelabel cell_$ternary$neuron.v:26$4" s:attribute="">1</text><text x="5" y="13" class="nodelabel cell_$ternary$neuron.v:26$4" s:attribute="">0</text><g s:x="-1" s:y="10" s:pid="A"/><g s:x="-1" s:y="30" s:pid="B"/><g s:x="12" s:y="38" s:pid="S"/><g s:x="24.5" s:y="20" s:pid="Y"/></g><g s:type="inputExt" transform="translate(246,178.5)" s:width="30" s:height="20" id="cell_potential_accumulated"><text x="15" y="-4" class="nodelabel cell_potential_accumulated" s:attribute="ref">potential_accumulated</text><s:alias val="$_inputExt_"/><path d="M0,0 L0,20 L15,20 L30,10 L15,0 Z" fill="#8bcaff" class="cell_potential_accumulated"/><g s:x="30" s:y="10" s:pid="Y"/></g><g s:type="inputExt" transform="translate(12,71)" s:width="30" s:height="20" id="cell_potential_previous"><text x="15" y="-4" class="nodelabel cell_potential_previous" s:attribute="ref">potential_previous</text><s:alias val="$_inputExt_"/><path d="M0,0 L0,20 L15,20 L30,10 L15,0 Z" fill="#8bcaff" class="cell_potential_previous"/><g s:x="30" s:y="10" s:pid="Y"/></g><g s:type="outputExt" transform="translate(995.5,68.5)" s:width="30" s:height="20" id="cell_potential_final"><text x="15" y="-4" class="nodelabel cell_potential_final" s:attribute="ref">potential_final</text><s:alias val="$_outputExt_"/><path d="M30,0 L30,20 L15,20 L0,10 L15,0 Z" fill="#169300" class="cell_potential_final"/><g s:x="0" s:y="10" s:pid="A"/></g><g s:type="inputExt" transform="translate(155,132)" s:width="30" s:height="20" id="cell_ien"><text x="15" y="-4" class="nodelabel cell_ien" s:attribute="ref">ien</text><s:alias val="$_inputExt_"/><path d="M0,0 L0,20 L15,20 L30,10 L15,0 Z" fill="#8bcaff" class="cell_ien"/><g s:x="30" s:y="10" s:pid="Y"/></g><g s:type="inputExt" transform="translate(155,22)" s:width="30" s:height="20" id="cell_clk"><text x="15" y="-4" class="nodelabel cell_clk" s:attribute="ref">clk</text><s:alias val="$_inputExt_"/><path d="M0,0 L0,20 L15,20 L30,10 L15,0 Z" fill="#8bcaff" class="cell_clk"/><g s:x="30" s:y="10" s:pid="Y"/></g><g s:type="inputExt" transform="translate(155,197)" s:width="30" s:height="20" id="cell_reset"><text x="15" y="-4" class="nodelabel cell_reset" s:attribute="ref">reset</text><s:alias val="$_inputExt_"/><path d="M0,0 L0,20 L15,20 L30,10 L15,0 Z" fill="#8bcaff" class="cell_reset"/><g s:x="30" s:y="10" s:pid="Y"/></g><g s:type="constant" transform="translate(625,109.5)" s:width="30" s:height="20" id="cell_0"><text x="15" y="-4" class="nodelabel cell_0" s:attribute="ref">0</text><s:alias val="$_constant_"/><rect width="30" height="20" fill="#745bff" class="cell_0"/><g s:x="31" s:y="10" s:pid="Y"/></g><g s:type="constant" transform="translate(691,133)" s:width="30" s:height="20" id="cell_011111111"><text x="15" y="-4" class="nodelabel cell_011111111" s:attribute="ref">0xff</text><s:alias val="$_constant_"/><rect width="30" height="20" fill="#745bff" class="cell_011111111"/><g s:x="31" s:y="10" s:pid="Y"/></g><g s:type="join" transform="translate(711,48)" s:width="5" s:height="40" id="cell_$join$,37,38,39,40,41,42,43,44,47,"><rect width="5" height="40" class="splitjoinBody" s:generic="body"/><s:alias val="$_join_"/><g s:x="5" s:y="20" s:pid="out"/><g transform="translate(-1,10)" s:x="-1" s:y="10" s:pid="in0"><text x="-3" y="-4" class="inputPortLabel">0:7</text></g><g transform="translate(-1,30)" s:x="-1" s:y="10" s:pid="in0"><text x="-3" y="-4" class="inputPortLabel">8</text></g></g><g s:type="split" transform="translate(565,48)" s:width="5" s:height="40" id="cell_$split$,37,38,39,40,41,42,43,44,45,"><rect width="5" height="40" class="splitjoinBody" s:generic="body"/><s:alias val="$_split_"/><g s:x="-1" s:y="20" s:pid="in"/><g transform="translate(5,10)" s:x="5" s:y="10" s:pid="out0"><text x="5" y="-4">0:7</text></g><g transform="translate(5,30)" s:x="5" s:y="10" s:pid="out0"><text x="5" y="-4">8</text></g></g><g s:type="split" transform="translate(896.5,68)" s:width="5" s:height="40" id="cell_$split$,18,19,20,21,22,23,24,25,46,"><rect width="5" height="20" class="splitjoinBody" s:generic="body"/><s:alias val="$_split_"/><g s:x="-1" s:y="20" s:pid="in"/><g transform="translate(5,10)" s:x="5" s:y="10" s:pid="out0"><text x="5" y="-4">0:7</text></g></g><line x1="277" x2="466" y1="61" y2="61" class="net_29,30,31,32,33,34,35,36 width_8" style="stroke-width: 2"/><line x1="276" x2="439" y1="188.5" y2="188.5" class="net_2,3,4,5,6,7,8,9 width_8" style="stroke-width: 2"/><line x1="439" x2="439" y1="188.5" y2="76" class="net_2,3,4,5,6,7,8,9 width_8" style="stroke-width: 2"/><line x1="439" x2="466" y1="76" y2="76" class="net_2,3,4,5,6,7,8,9 width_8" style="stroke-width: 2"/><line x1="185" x2="195" y1="32" y2="32" class="net_27 width_1" style="stroke-width: 1"/><line x1="195" x2="195" y1="32" y2="61" class="net_27 width_1" style="stroke-width: 1"/><line x1="195" x2="246" y1="61" y2="61" class="net_27 width_1" style="stroke-width: 1"/><line x1="42" x2="245" y1="81" y2="81" class="net_10,11,12,13,14,15,16,17 width_8" style="stroke-width: 2"/><line x1="185" x2="195" y1="142" y2="142" class="net_26 width_1" style="stroke-width: 1"/><line x1="195" x2="195" y1="142" y2="101" class="net_26 width_1" style="stroke-width: 1"/><line x1="195" x2="245" y1="101" y2="101" class="net_26 width_1" style="stroke-width: 1"/><line x1="185" x2="205" y1="207" y2="207" class="net_28 width_1" style="stroke-width: 1"/><line x1="205" x2="205" y1="207" y2="121" class="net_28 width_1" style="stroke-width: 1"/><line x1="205" x2="245" y1="121" y2="121" class="net_28 width_1" style="stroke-width: 1"/><line x1="717" x2="796" y1="68.5" y2="68.5" class="net_37,38,39,40,41,42,43,44,47 width_9" style="stroke-width: 2"/><line x1="722" x2="771" y1="143" y2="143" class="net_48,49,50,51,52,53,54,55,56 width_9" style="stroke-width: 2"/><line x1="771" x2="771" y1="143" y2="88.5" class="net_48,49,50,51,52,53,54,55,56 width_9" style="stroke-width: 2"/><line x1="771" x2="796" y1="88.5" y2="88.5" class="net_48,49,50,51,52,53,54,55,56 width_9" style="stroke-width: 2"/><line x1="571" x2="600" y1="78.5" y2="78.5" class="net_45 width_1" style="stroke-width: 1"/><line x1="600" x2="600" y1="78.5" y2="163" class="net_45 width_1" style="stroke-width: 1"/><line x1="600" x2="809" y1="163" y2="163" class="net_45 width_1" style="stroke-width: 1"/><line x1="809" x2="809" y1="163" y2="96.5" class="net_45 width_1" style="stroke-width: 1"/><line x1="902.5" x2="995.5" y1="78.5" y2="78.5" class="net_18,19,20,21,22,23,24,25 width_8" style="stroke-width: 2"/><line x1="571" x2="710" y1="58.5" y2="58.5" class="net_37,38,39,40,41,42,43,44 width_8" style="stroke-width: 2"/><line x1="656" x2="666" y1="119.5" y2="119.5" class="net_47 width_1" style="stroke-width: 1"/><line x1="666" x2="666" y1="119.5" y2="78.5" class="net_47 width_1" style="stroke-width: 1"/><line x1="666" x2="710" y1="78.5" y2="78.5" class="net_47 width_1" style="stroke-width: 1"/><line x1="490" x2="564" y1="68.5" y2="68.5" class="net_37,38,39,40,41,42,43,44,45 width_9" style="stroke-width: 2"/><line x1="821.5" x2="895.5" y1="78.5" y2="78.5" class="net_18,19,20,21,22,23,24,25,46 width_9" style="stroke-width: 2"/><rect x="426" y="56" width="16" height="9" class="net_29,30,31,32,33,34,35,36 width_8 busLabel_8" style="fill: white; stroke: none"/><text x="425" y="64" class="net_29,30,31,32,33,34,35,36 width_8 busLabel_8">/8/</text><rect x="426" y="183.5" width="16" height="9" class="net_2,3,4,5,6,7,8,9 width_8 busLabel_8" style="fill: white; stroke: none"/><text x="425" y="191.5" class="net_2,3,4,5,6,7,8,9 width_8 busLabel_8">/8/</text><rect x="169" y="76" width="16" height="9" class="net_10,11,12,13,14,15,16,17 width_8 busLabel_8" style="fill: white; stroke: none"/><text x="168" y="84" class="net_10,11,12,13,14,15,16,17 width_8 busLabel_8">/8/</text><rect x="758" y="63.5" width="16" height="9" class="net_37,38,39,40,41,42,43,44,47 width_9 busLabel_9" style="fill: white; stroke: none"/><text x="757" y="71.5" class="net_37,38,39,40,41,42,43,44,47 width_9 busLabel_9">/9/</text><rect x="758" y="138" width="16" height="9" class="net_48,49,50,51,52,53,54,55,56 width_9 busLabel_9" style="fill: white; stroke: none"/><text x="757" y="146" class="net_48,49,50,51,52,53,54,55,56 width_9 busLabel_9">/9/</text><rect x="957.5" y="73.5" width="16" height="9" class="net_18,19,20,21,22,23,24,25 width_8 busLabel_8" style="fill: white; stroke: none"/><text x="956.5" y="81.5" class="net_18,19,20,21,22,23,24,25 width_8 busLabel_8">/8/</text><rect x="639.5" y="53.5" width="16" height="9" class="net_37,38,39,40,41,42,43,44 width_8 busLabel_8" style="fill: white; stroke: none"/><text x="638.5" y="61.5" class="net_37,38,39,40,41,42,43,44 width_8 busLabel_8">/8/</text><rect x="526" y="63.5" width="16" height="9" class="net_37,38,39,40,41,42,43,44,45 width_9 busLabel_9" style="fill: white; stroke: none"/><text x="525" y="71.5" class="net_37,38,39,40,41,42,43,44,45 width_9 busLabel_9">/9/</text><rect x="857.5" y="73.5" width="16" height="9" class="net_18,19,20,21,22,23,24,25,46 width_9 busLabel_9" style="fill: white; stroke: none"/><text x="856.5" y="81.5" class="net_18,19,20,21,22,23,24,25,46 width_9 busLabel_9">/9/</text></svg>