<svg xmlns="http://www.w3.org/2000/svg" xmlns:xlink="http://www.w3.org/1999/xlink" xmlns:s="https://github.com/nturley/netlistsvg" width="509" height="224"><style>svg {
  stroke:#000;
  fill:none;
}
text {
  fill:#000;
  stroke:none;
  font-size:10px;
  font-weight: bold;
  font-family: "Courier New", monospace;
}
line {
    stroke-linecap: round;
}
.nodelabel {
  text-anchor: middle;
}
.inputPortLabel {
  text-anchor: end;
}
.splitjoinBody {
  fill:#000;
}</style><g s:type="and" transform="translate(235,69.5)" s:width="30" s:height="25" id="cell_$and$schmitt_trigger.v:19$2"><s:alias val="$and"/><s:alias val="$logic_and"/><s:alias val="$_AND_"/><path d="M0,0 L0,25 L15,25 A15 12.5 0 0 0 15,0 Z" fill="#eebaff" class="cell_$and$schmitt_trigger.v:19$2"/><g s:x="0" s:y="5" s:pid="A"/><g s:x="0" s:y="20" s:pid="B"/><g s:x="30" s:y="12.5" s:pid="Y"/></g><g s:type="and" transform="translate(366,174.5)" s:width="30" s:height="25" id="cell_$and$schmitt_trigger.v:20$5"><s:alias val="$and"/><s:alias val="$logic_and"/><s:alias val="$_AND_"/><path d="M0,0 L0,25 L15,25 A15 12.5 0 0 0 15,0 Z" fill="#eebaff" class="cell_$and$schmitt_trigger.v:20$5"/><g s:x="0" s:y="5" s:pid="A"/><g s:x="0" s:y="20" s:pid="B"/><g s:x="30" s:y="12.5" s:pid="Y"/></g><g s:type="gt" transform="translate(151.66666666666666,77)" s:width="25" s:height="25" id="cell_$gt$schmitt_trigger.v:19$1"><s:alias val="$gt"/><circle r="12" cx="12" cy="12" fill="#ffffff" class="cell_$gt$schmitt_trigger.v:19$1"/><line x1="8" x2="19" y1="7" y2="12" class="cell_$gt$schmitt_trigger.v:19$1"/><line x1="8" x2="19" y1="17" y2="12" class="cell_$gt$schmitt_trigger.v:19$1"/><g s:x="2" s:y="5" s:pid="A"/><g s:x="2" s:y="20" s:pid="B"/><g s:x="25" s:y="12.5" s:pid="Y"/></g><g s:type="not" transform="translate(301,72)" s:width="30" s:height="20" id="cell_$logic_not$schmitt_trigger.v:20$3"><s:alias val="$_NOT_"/><s:alias val="$not"/><s:alias val="$logic_not"/><path d="M0,0 L0,20 L20,10 Z" fill="#eebaff" class="cell_$logic_not$schmitt_trigger.v:20$3"/><circle cx="24" cy="10" r="3" fill="#eebaff" class="cell_$logic_not$schmitt_trigger.v:20$3"/><g s:x="-1" s:y="10" s:pid="A"/><g s:x="27" s:y="10" s:pid="Y"/></g><g s:type="lt" transform="translate(302.3333333333333,182)" s:width="25" s:height="25" id="cell_$lt$schmitt_trigger.v:20$4"><s:alias val="$lt"/><circle r="12.5" cx="12.5" cy="12.5" fill="#ffffff" class="cell_$lt$schmitt_trigger.v:20$4"/><line x1="6" x2="17" y1="12" y2="7" class="cell_$lt$schmitt_trigger.v:20$4"/><line x1="6" x2="17" y1="12" y2="17" class="cell_$lt$schmitt_trigger.v:20$4"/><g s:x="2" s:y="5" s:pid="A"/><g s:x="2" s:y="20" s:pid="B"/><g s:x="25" s:y="12.5" s:pid="Y"/></g><g s:type="inputExt" transform="translate(12,22)" s:width="30" s:height="20" id="cell_potential"><text x="15" y="-4" class="nodelabel cell_potential" s:attribute="ref">potential</text><s:alias val="$_inputExt_"/><path d="M0,0 L0,20 L15,20 L30,10 L15,0 Z" fill="#8bcaff" class="cell_potential"/><g s:x="30" s:y="10" s:pid="Y"/></g><g s:type="outputExt" transform="translate(431,51)" s:width="30" s:height="20" id="cell_spk"><text x="15" y="-4" class="nodelabel cell_spk" s:attribute="ref">spk</text><s:alias val="$_outputExt_"/><path d="M30,0 L30,20 L15,20 L0,10 L15,0 Z" fill="#169300" class="cell_spk"/><g s:x="0" s:y="10" s:pid="A"/></g><g s:type="outputExt" transform="translate(431,177)" s:width="30" s:height="20" id="cell_spkblty_out"><text x="15" y="-4" class="nodelabel cell_spkblty_out" s:attribute="ref">spkblty_out</text><s:alias val="$_outputExt_"/><path d="M30,0 L30,20 L15,20 L0,10 L15,0 Z" fill="#169300" class="cell_spkblty_out"/><g s:x="0" s:y="10" s:pid="A"/></g><g s:type="inputExt" transform="translate(140,22)" s:width="30" s:height="20" id="cell_spkblty_in"><text x="15" y="-4" class="nodelabel cell_spkblty_in" s:attribute="ref">spkblty_in</text><s:alias val="$_inputExt_"/><path d="M0,0 L0,20 L15,20 L30,10 L15,0 Z" fill="#8bcaff" class="cell_spkblty_in"/><g s:x="30" s:y="10" s:pid="Y"/></g><g s:type="constant" transform="translate(12,87)" s:width="30" s:height="20" id="cell_11100110"><text x="15" y="-4" class="nodelabel cell_11100110" s:attribute="ref">0xe6</text><s:alias val="$_constant_"/><rect width="30" height="20" fill="#745bff" class="cell_11100110"/><g s:x="31" s:y="10" s:pid="Y"/></g><g s:type="constant" transform="translate(140,192)" s:width="30" s:height="20" id="cell_11001000"><text x="15" y="-4" class="nodelabel cell_11001000" s:attribute="ref">0xc8</text><s:alias val="$_constant_"/><rect width="30" height="20" fill="#745bff" class="cell_11001000"/><g s:x="31" s:y="10" s:pid="Y"/></g><line x1="170" x2="210" y1="32" y2="32" class="net_12 width_1" style="stroke-width: 1"/><line x1="210" x2="210" y1="32" y2="74.5" class="net_12 width_1" style="stroke-width: 1"/><line x1="210" x2="235" y1="74.5" y2="74.5" class="net_12 width_1" style="stroke-width: 1"/><line x1="176.66666666666666" x2="235" y1="89.5" y2="89.5" class="net_13 width_1" style="stroke-width: 1"/><line x1="328" x2="341" y1="82" y2="82" class="net_14 width_1" style="stroke-width: 1"/><line x1="341" x2="341" y1="82" y2="179.5" class="net_14 width_1" style="stroke-width: 1"/><line x1="341" x2="366" y1="179.5" y2="179.5" class="net_14 width_1" style="stroke-width: 1"/><line x1="327.3333333333333" x2="366" y1="194.5" y2="194.5" class="net_15 width_1" style="stroke-width: 1"/><line x1="42" x2="115" y1="32" y2="32" class="net_2,3,4,5,6,7,8,9 width_8" style="stroke-width: 2"/><line x1="115" x2="115" y1="32" y2="82" class="net_2,3,4,5,6,7,8,9 width_8" style="stroke-width: 2"/><line x1="115" x2="153.66666666666666" y1="82" y2="82" class="net_2,3,4,5,6,7,8,9 width_8" style="stroke-width: 2"/><line x1="42" x2="76" y1="32" y2="32" class="net_2,3,4,5,6,7,8,9 width_8" style="stroke-width: 2"/><line x1="76" x2="76" y1="32" y2="141" class="net_2,3,4,5,6,7,8,9 width_8" style="stroke-width: 2"/><line x1="76" x2="275" y1="141" y2="141" class="net_2,3,4,5,6,7,8,9 width_8" style="stroke-width: 2"/><line x1="275" x2="275" y1="141" y2="187" class="net_2,3,4,5,6,7,8,9 width_8" style="stroke-width: 2"/><circle cx="76" cy="32" r="3" style="fill:#000" class="net_2,3,4,5,6,7,8,9 width_8"/><line x1="275" x2="304.3333333333333" y1="187" y2="187" class="net_2,3,4,5,6,7,8,9 width_8" style="stroke-width: 2"/><line x1="43" x2="153.66666666666666" y1="97" y2="97" class="net_16,17,18,19,20,21,22,23 width_8" style="stroke-width: 2"/><line x1="265" x2="300" y1="82" y2="82" class="net_10 width_1" style="stroke-width: 1"/><line x1="265" x2="275" y1="82" y2="82" class="net_10 width_1" style="stroke-width: 1"/><line x1="275" x2="275" y1="82" y2="61" class="net_10 width_1" style="stroke-width: 1"/><circle cx="275" cy="82" r="2" style="fill:#000" class="net_10 width_1"/><line x1="275" x2="431" y1="61" y2="61" class="net_10 width_1" style="stroke-width: 1"/><line x1="171" x2="304.3333333333333" y1="202" y2="202" class="net_24,25,26,27,28,29,30,31 width_8" style="stroke-width: 2"/><line x1="396" x2="431" y1="187" y2="187" class="net_11 width_1" style="stroke-width: 1"/><rect x="169" y="136" width="16" height="9" class="net_2,3,4,5,6,7,8,9 width_8 busLabel_8" style="fill: white; stroke: none"/><text x="168" y="144" class="net_2,3,4,5,6,7,8,9 width_8 busLabel_8">/8/</text><rect x="169" y="136" width="16" height="9" class="net_2,3,4,5,6,7,8,9 width_8 busLabel_8" style="fill: white; stroke: none"/><text x="168" y="144" class="net_2,3,4,5,6,7,8,9 width_8 busLabel_8">/8/</text><rect x="102" y="92" width="16" height="9" class="net_16,17,18,19,20,21,22,23 width_8 busLabel_8" style="fill: white; stroke: none"/><text x="101" y="100" class="net_16,17,18,19,20,21,22,23 width_8 busLabel_8">/8/</text><rect x="249" y="197" width="16" height="9" class="net_24,25,26,27,28,29,30,31 width_8 busLabel_8" style="fill: white; stroke: none"/><text x="248" y="205" class="net_24,25,26,27,28,29,30,31 width_8 busLabel_8">/8/</text></svg>