<svg xmlns="http://www.w3.org/2000/svg" xmlns:xlink="http://www.w3.org/1999/xlink" xmlns:s="https://github.com/nturley/netlistsvg" width="469" height="202.5">
  <style>svg {
    stroke:#000;
    fill:none;
  }
  text {
    fill:#000;
    stroke:none;
    font-size:10px;
    font-weight: bold;
    font-family: "Courier New", monospace;
  }
  .nodelabel {
    text-anchor: middle;
  }
  .inputPortLabel {
    text-anchor: end;
  }
  .splitjoinBody {
    fill:#000;
  }</style>
  <g s:type="and" transform="translate(196,100.5)" s:width="30" s:height="25" id="cell_$and$src/schmitt_trigger.v:19$2">
    <s:alias val="$and"/>
    <s:alias val="$logic_and"/>
    <s:alias val="$_AND_"/>
    <path d="M0,0 L0,25 L15,25 A15 12.5 0 0 0 15,0 Z" class="cell_$and$src/schmitt_trigger.v:19$2"/>
    <g s:x="0" s:y="5" s:pid="A"/>
    <g s:x="0" s:y="20" s:pid="B"/>
    <g s:x="30" s:y="12.5" s:pid="Y"/>
  </g>
  <g s:type="and" transform="translate(326,153)" s:width="30" s:height="25" id="cell_$and$src/schmitt_trigger.v:20$5">
    <s:alias val="$and"/>
    <s:alias val="$logic_and"/>
    <s:alias val="$_AND_"/>
    <path d="M0,0 L0,25 L15,25 A15 12.5 0 0 0 15,0 Z" class="cell_$and$src/schmitt_trigger.v:20$5"/>
    <g s:x="0" s:y="5" s:pid="A"/>
    <g s:x="0" s:y="20" s:pid="B"/>
    <g s:x="30" s:y="12.5" s:pid="Y"/>
  </g>
  <g s:type="gt" transform="translate(112.66666666666667,108)" s:width="25" s:height="25" id="cell_$gt$src/schmitt_trigger.v:19$1">
    <s:alias val="$gt"/>
    <circle r="12.5" cx="12.5" cy="12.5" class="cell_$gt$src/schmitt_trigger.v:19$1"/>
    <line x1="7.5" x2="17.5" y1="7.5" y2="12.5" class="cell_$gt$src/schmitt_trigger.v:19$1"/>
    <line x1="7.5" x2="17.5" y1="17.5" y2="12.5" class="cell_$gt$src/schmitt_trigger.v:19$1"/>
    <g s:x="3" s:y="5" s:pid="A"/>
    <g s:x="3" s:y="20" s:pid="B"/>
    <g s:x="25" s:y="12.5" s:pid="Y"/>
  </g>
  <g s:type="not" transform="translate(261,103)" s:width="30" s:height="20" id="cell_$logic_not$src/schmitt_trigger.v:20$3">
    <s:alias val="$_NOT_"/>
    <s:alias val="$not"/>
    <s:alias val="$logic_not"/>
    <path d="M0,0 L0,20 L20,10 Z" class="cell_$logic_not$src/schmitt_trigger.v:20$3"/>
    <circle cx="23" cy="10" r="3" class="cell_$logic_not$src/schmitt_trigger.v:20$3"/>
    <g s:x="0" s:y="10" s:pid="A"/>
    <g s:x="25" s:y="10" s:pid="Y"/>
  </g>
  <g s:type="lt" transform="translate(262.66666666666663,160.5)" s:width="25" s:height="25" id="cell_$lt$src/schmitt_trigger.v:20$4">
    <s:alias val="$lt"/>
    <circle r="12.5" cx="12.5" cy="12.5" class="cell_$lt$src/schmitt_trigger.v:20$4"/>
    <line x1="7.5" x2="17.5" y1="12.5" y2="7.5" class="cell_$lt$src/schmitt_trigger.v:20$4"/>
    <line x1="7.5" x2="17.5" y1="12.5" y2="17.5" class="cell_$lt$src/schmitt_trigger.v:20$4"/>
    <g s:x="3" s:y="5" s:pid="A"/>
    <g s:x="3" s:y="20" s:pid="B"/>
    <g s:x="25" s:y="12.5" s:pid="Y"/>
  </g>
  <g s:type="inputExt" transform="translate(12,22)" s:width="30" s:height="20" id="cell_potential">
    <text x="15" y="-4" class="nodelabel cell_potential" s:attribute="ref">potential</text>
    <s:alias val="$_inputExt_"/>
    <path d="M0,0 L0,20 L15,20 L30,10 L15,0 Z" class="cell_potential"/>
    <g s:x="28" s:y="10" s:pid="Y"/>
  </g>
  <g s:type="outputExt" transform="translate(391,82)" s:width="30" s:height="20" id="cell_spk">
    <text x="15" y="-4" class="nodelabel cell_spk" s:attribute="ref">spk</text>
    <s:alias val="$_outputExt_"/>
    <path d="M30,0 L30,20 L15,20 L0,10 L15,0 Z" class="cell_spk"/>
    <g s:x="0" s:y="10" s:pid="A"/>
  </g>
  <g s:type="outputExt" transform="translate(391,155.5)" s:width="30" s:height="20" id="cell_spkblty_out">
    <text x="15" y="-4" class="nodelabel cell_spkblty_out" s:attribute="ref">spkblty_out</text>
    <s:alias val="$_outputExt_"/>
    <path d="M30,0 L30,20 L15,20 L0,10 L15,0 Z" class="cell_spkblty_out"/>
    <g s:x="0" s:y="10" s:pid="A"/>
  </g>
  <g s:type="inputExt" transform="translate(101,53)" s:width="30" s:height="20" id="cell_spkblty_in">
    <text x="15" y="-4" class="nodelabel cell_spkblty_in" s:attribute="ref">spkblty_in</text>
    <s:alias val="$_inputExt_"/>
    <path d="M0,0 L0,20 L15,20 L30,10 L15,0 Z" class="cell_spkblty_in"/>
    <g s:x="28" s:y="10" s:pid="Y"/>
  </g>
  <g s:type="constant" transform="translate(12,118)" s:width="30" s:height="20" id="cell_11100110">
    <text x="15" y="-4" class="nodelabel cell_11100110" s:attribute="ref">0xe6</text>
    <s:alias val="$_constant_"/>
    <rect width="30" height="20" class="cell_11100110"/>
    <g s:x="30" s:y="10" s:pid="Y"/>
  </g>
  <g s:type="constant" transform="translate(196,170.5)" s:width="30" s:height="20" id="cell_11001000">
    <text x="15" y="-4" class="nodelabel cell_11001000" s:attribute="ref">0xc8</text>
    <s:alias val="$_constant_"/>
    <rect width="30" height="20" class="cell_11001000"/>
    <g s:x="30" s:y="10" s:pid="Y"/>
  </g>
  <line x1="129" x2="171" y1="63" y2="63" class="net_12"/>
  <line x1="171" x2="171" y1="63" y2="105.5" class="net_12"/>
  <line x1="171" x2="196" y1="105.5" y2="105.5" class="net_12"/>
  <line x1="137.66666666666669" x2="196" y1="120.5" y2="120.5" class="net_13"/>
  <line x1="286" x2="301" y1="113" y2="113" class="net_14"/>
  <line x1="301" x2="301" y1="113" y2="158" class="net_14"/>
  <line x1="301" x2="326" y1="158" y2="158" class="net_14"/>
  <line x1="287.66666666666663" x2="326" y1="173" y2="173" class="net_15"/>
  <line x1="40" x2="76" y1="32" y2="32" class="net_2,3,4,5,6,7,8,9"/>
  <line x1="76" x2="76" y1="32" y2="113" class="net_2,3,4,5,6,7,8,9"/>
  <circle cx="76" cy="32" r="2" style="fill:#000" class="net_2,3,4,5,6,7,8,9"/>
  <line x1="76" x2="115.66666666666667" y1="113" y2="113" class="net_2,3,4,5,6,7,8,9"/>
  <line x1="40" x2="236" y1="32" y2="32" class="net_2,3,4,5,6,7,8,9"/>
  <line x1="236" x2="236" y1="32" y2="165.5" class="net_2,3,4,5,6,7,8,9"/>
  <line x1="236" x2="265.66666666666663" y1="165.5" y2="165.5" class="net_2,3,4,5,6,7,8,9"/>
  <line x1="42" x2="115.66666666666667" y1="128" y2="128" class="net_16,17,18,19,20,21,22,23"/>
  <line x1="226" x2="261" y1="113" y2="113" class="net_10"/>
  <line x1="226" x2="246" y1="113" y2="113" class="net_10"/>
  <line x1="246" x2="246" y1="113" y2="92" class="net_10"/>
  <circle cx="246" cy="113" r="2" style="fill:#000" class="net_10"/>
  <line x1="246" x2="391" y1="92" y2="92" class="net_10"/>
  <line x1="226" x2="265.66666666666663" y1="180.5" y2="180.5" class="net_24,25,26,27,28,29,30,31"/>
  <line x1="356" x2="391" y1="165.5" y2="165.5" class="net_11"/>
</svg>
