<svg xmlns="http://www.w3.org/2000/svg" xmlns:xlink="http://www.w3.org/1999/xlink" xmlns:s="https://github.com/nturley/netlistsvg" width="955.5" height="1061"><style>svg {
  stroke:#000;
  fill:none;
}
text {
  fill:#000;
  stroke:none;
  font-size:10px;
  font-weight: bold;
  font-family: "Courier New", monospace;
}
line {
    stroke-linecap: round;
}
.nodelabel {
  text-anchor: middle;
}
.inputPortLabel {
  text-anchor: end;
}
.splitjoinBody {
  fill:#000;
}</style><g s:type="add" transform="translate(506,298.5)" s:width="25" s:height="25" id="cell_$add$shift_add_mult.v:15$6"><s:alias val="$add"/><circle r="12.5" cx="12.5" cy="12.5" fill="#ffc9c3" class="cell_$add$shift_add_mult.v:15$6"/><line x1="7.5" x2="17.5" y1="12.5" y2="12.5" class="cell_$add$shift_add_mult.v:15$6"/><line x1="12.5" x2="12.5" y1="7.5" y2="17.5" class="cell_$add$shift_add_mult.v:15$6"/><g s:x="2" s:y="5" s:pid="A"/><g s:x="2" s:y="20" s:pid="B"/><g s:x="26" s:y="12.5" s:pid="Y"/></g><g s:type="add" transform="translate(506,236)" s:width="25" s:height="25" id="cell_$add$shift_add_mult.v:17$10"><s:alias val="$add"/><circle r="12.5" cx="12.5" cy="12.5" fill="#ffc9c3" class="cell_$add$shift_add_mult.v:17$10"/><line x1="7.5" x2="17.5" y1="12.5" y2="12.5" class="cell_$add$shift_add_mult.v:17$10"/><line x1="12.5" x2="12.5" y1="7.5" y2="17.5" class="cell_$add$shift_add_mult.v:17$10"/><g s:x="2" s:y="5" s:pid="A"/><g s:x="2" s:y="20" s:pid="B"/><g s:x="26" s:y="12.5" s:pid="Y"/></g><g s:type="add" transform="translate(377,82.5)" s:width="25" s:height="25" id="cell_$add$shift_add_mult.v:19$16"><s:alias val="$add"/><circle r="12.5" cx="12.5" cy="12.5" fill="#ffc9c3" class="cell_$add$shift_add_mult.v:19$16"/><line x1="7.5" x2="17.5" y1="12.5" y2="12.5" class="cell_$add$shift_add_mult.v:19$16"/><line x1="12.5" x2="12.5" y1="7.5" y2="17.5" class="cell_$add$shift_add_mult.v:19$16"/><g s:x="2" s:y="5" s:pid="A"/><g s:x="2" s:y="20" s:pid="B"/><g s:x="26" s:y="12.5" s:pid="Y"/></g><g s:type="add" transform="translate(506,31)" s:width="25" s:height="25" id="cell_$add$shift_add_mult.v:19$18"><s:alias val="$add"/><circle r="12.5" cx="12.5" cy="12.5" fill="#ffc9c3" class="cell_$add$shift_add_mult.v:19$18"/><line x1="7.5" x2="17.5" y1="12.5" y2="12.5" class="cell_$add$shift_add_mult.v:19$18"/><line x1="12.5" x2="12.5" y1="7.5" y2="17.5" class="cell_$add$shift_add_mult.v:19$18"/><g s:x="2" s:y="5" s:pid="A"/><g s:x="2" s:y="20" s:pid="B"/><g s:x="26" s:y="12.5" s:pid="Y"/></g><g s:type="mux-bus" transform="translate(797,290)" s:width="24" s:height="40" id="cell_$procmux$20"><s:alias val="$pmux-bus"/><s:alias val="$mux-bus"/><s:alias val="$_MUX_-bus"/><path d="M8,2 L8,0 L24,8 L24,32 L8,40 L8,38" fill="#ffffff" class="cell_$procmux$20"/><path d="M4,2 L4,0 L22,9 L22,31 L4,40 L4,38" fill="#ffffff" class="cell_$procmux$20"/><path d="M0,0 L20,10 L20,30 L0,40 Z" fill="#ffffff" class="cell_$procmux$20"/><text x="5" y="32" class="nodelabel cell_$procmux$20" s:attribute="">1</text><text x="5" y="13" class="nodelabel cell_$procmux$20" s:attribute="">0</text><g s:x="-1" s:y="10" s:pid="A"/><g s:x="-1" s:y="30" s:pid="B"/><g s:x="12" s:y="38" s:pid="S"/><g s:x="24.5" s:y="20" s:pid="Y"/></g><g s:type="eq" transform="translate(572.3333333333334,449)" s:width="25" s:height="25" id="cell_$procmux$21_CMP0"><s:alias val="$eq"/><circle r="12.5" cx="12.5" cy="12.5" fill="#ffc9c3" class="cell_$procmux$21_CMP0"/><line x1="7.5" x2="17.5" y1="10" y2="10" class="cell_$procmux$21_CMP0"/><line x1="7.5" x2="17.5" y1="15" y2="15" class="cell_$procmux$21_CMP0"/><g s:x="2" s:y="5" s:pid="A"/><g s:x="2" s:y="20" s:pid="B"/><g s:x="25" s:y="12.5" s:pid="Y"/></g><g s:type="eq" transform="translate(572.3333333333334,514)" s:width="25" s:height="25" id="cell_$procmux$22_CMP0"><s:alias val="$eq"/><circle r="12.5" cx="12.5" cy="12.5" fill="#ffc9c3" class="cell_$procmux$22_CMP0"/><line x1="7.5" x2="17.5" y1="10" y2="10" class="cell_$procmux$22_CMP0"/><line x1="7.5" x2="17.5" y1="15" y2="15" class="cell_$procmux$22_CMP0"/><g s:x="2" s:y="5" s:pid="A"/><g s:x="2" s:y="20" s:pid="B"/><g s:x="25" s:y="12.5" s:pid="Y"/></g><g s:type="eq" transform="translate(572.3333333333334,579)" s:width="25" s:height="25" id="cell_$procmux$23_CMP0"><s:alias val="$eq"/><circle r="12.5" cx="12.5" cy="12.5" fill="#ffc9c3" class="cell_$procmux$23_CMP0"/><line x1="7.5" x2="17.5" y1="10" y2="10" class="cell_$procmux$23_CMP0"/><line x1="7.5" x2="17.5" y1="15" y2="15" class="cell_$procmux$23_CMP0"/><g s:x="2" s:y="5" s:pid="A"/><g s:x="2" s:y="20" s:pid="B"/><g s:x="25" s:y="12.5" s:pid="Y"/></g><g s:type="eq" transform="translate(572.3333333333334,644)" s:width="25" s:height="25" id="cell_$procmux$24_CMP0"><s:alias val="$eq"/><circle r="12.5" cx="12.5" cy="12.5" fill="#ffc9c3" class="cell_$procmux$24_CMP0"/><line x1="7.5" x2="17.5" y1="10" y2="10" class="cell_$procmux$24_CMP0"/><line x1="7.5" x2="17.5" y1="15" y2="15" class="cell_$procmux$24_CMP0"/><g s:x="2" s:y="5" s:pid="A"/><g s:x="2" s:y="20" s:pid="B"/><g s:x="25" s:y="12.5" s:pid="Y"/></g><g s:type="eq" transform="translate(572.3333333333334,774)" s:width="25" s:height="25" id="cell_$procmux$25_CMP0"><s:alias val="$eq"/><circle r="12.5" cx="12.5" cy="12.5" fill="#ffc9c3" class="cell_$procmux$25_CMP0"/><line x1="7.5" x2="17.5" y1="10" y2="10" class="cell_$procmux$25_CMP0"/><line x1="7.5" x2="17.5" y1="15" y2="15" class="cell_$procmux$25_CMP0"/><g s:x="2" s:y="5" s:pid="A"/><g s:x="2" s:y="20" s:pid="B"/><g s:x="25" s:y="12.5" s:pid="Y"/></g><g s:type="eq" transform="translate(572.3333333333334,839)" s:width="25" s:height="25" id="cell_$procmux$26_CMP0"><s:alias val="$eq"/><circle r="12.5" cx="12.5" cy="12.5" fill="#ffc9c3" class="cell_$procmux$26_CMP0"/><line x1="7.5" x2="17.5" y1="10" y2="10" class="cell_$procmux$26_CMP0"/><line x1="7.5" x2="17.5" y1="15" y2="15" class="cell_$procmux$26_CMP0"/><g s:x="2" s:y="5" s:pid="A"/><g s:x="2" s:y="20" s:pid="B"/><g s:x="25" s:y="12.5" s:pid="Y"/></g><g s:type="eq" transform="translate(572.3333333333334,904)" s:width="25" s:height="25" id="cell_$procmux$27_CMP0"><s:alias val="$eq"/><circle r="12.5" cx="12.5" cy="12.5" fill="#ffc9c3" class="cell_$procmux$27_CMP0"/><line x1="7.5" x2="17.5" y1="10" y2="10" class="cell_$procmux$27_CMP0"/><line x1="7.5" x2="17.5" y1="15" y2="15" class="cell_$procmux$27_CMP0"/><g s:x="2" s:y="5" s:pid="A"/><g s:x="2" s:y="20" s:pid="B"/><g s:x="25" s:y="12.5" s:pid="Y"/></g><g s:type="eq" transform="translate(572.3333333333334,969)" s:width="25" s:height="25" id="cell_$procmux$28_CMP0"><s:alias val="$eq"/><circle r="12.5" cx="12.5" cy="12.5" fill="#ffc9c3" class="cell_$procmux$28_CMP0"/><line x1="7.5" x2="17.5" y1="10" y2="10" class="cell_$procmux$28_CMP0"/><line x1="7.5" x2="17.5" y1="15" y2="15" class="cell_$procmux$28_CMP0"/><g s:x="2" s:y="5" s:pid="A"/><g s:x="2" s:y="20" s:pid="B"/><g s:x="25" s:y="12.5" s:pid="Y"/></g><g s:type="not" transform="translate(571,1029)" s:width="30" s:height="20" id="cell_$procmux$29_CMP0"><s:alias val="$_NOT_"/><s:alias val="$not"/><s:alias val="$logic_not"/><path d="M0,0 L0,20 L20,10 Z" fill="#eebaff" class="cell_$procmux$29_CMP0"/><circle cx="24" cy="10" r="3" fill="#eebaff" class="cell_$procmux$29_CMP0"/><g s:x="-1" s:y="10" s:pid="A"/><g s:x="27" s:y="10" s:pid="Y"/></g><g s:type="inputExt" transform="translate(438,719)" s:width="30" s:height="20" id="cell_beta"><text x="15" y="-4" class="nodelabel cell_beta" s:attribute="ref">beta</text><s:alias val="$_inputExt_"/><path d="M0,0 L0,20 L15,20 L30,10 L15,0 Z" fill="#8bcaff" class="cell_beta"/><g s:x="30" s:y="10" s:pid="Y"/></g><g s:type="inputExt" transform="translate(12,254)" s:width="30" s:height="20" id="cell_potential"><text x="15" y="-4" class="nodelabel cell_potential" s:attribute="ref">potential</text><s:alias val="$_inputExt_"/><path d="M0,0 L0,20 L15,20 L30,10 L15,0 Z" fill="#8bcaff" class="cell_potential"/><g s:x="30" s:y="10" s:pid="Y"/></g><g s:type="outputExt" transform="translate(895.5,300)" s:width="30" s:height="20" id="cell_mult_ans"><text x="15" y="-4" class="nodelabel cell_mult_ans" s:attribute="ref">mult_ans</text><s:alias val="$_outputExt_"/><path d="M30,0 L30,20 L15,20 L0,10 L15,0 Z" fill="#169300" class="cell_mult_ans"/><g s:x="0" s:y="10" s:pid="A"/></g><g s:type="constant" transform="translate(140,338.5)" s:width="30" s:height="20" id="cell_00"><text x="15" y="-4" class="nodelabel cell_00" s:attribute="ref">00</text><s:alias val="$_constant_"/><rect width="30" height="20" fill="#745bff" class="cell_00"/><g s:x="31" s:y="10" s:pid="Y"/></g><g s:type="constant" transform="translate(272,256)" s:width="30" s:height="20" id="cell_000"><text x="15" y="-4" class="nodelabel cell_000" s:attribute="ref">000</text><s:alias val="$_constant_"/><rect width="30" height="20" fill="#745bff" class="cell_000"/><g s:x="31" s:y="10" s:pid="Y"/></g><g s:type="constant" transform="translate(206,146.5)" s:width="30" s:height="20" id="cell_0"><text x="15" y="-4" class="nodelabel cell_0" s:attribute="ref">0</text><s:alias val="$_constant_"/><rect width="30" height="20" fill="#745bff" class="cell_0"/><g s:x="31" s:y="10" s:pid="Y"/></g><g s:type="constant" transform="translate(691,174.5)" s:width="30" s:height="20" id="cell_0000xxxx"><text x="15" y="-4" class="nodelabel cell_0000xxxx" s:attribute="ref">0x0</text><s:alias val="$_constant_"/><rect width="30" height="20" fill="#745bff" class="cell_0000xxxx"/><g s:x="31" s:y="10" s:pid="Y"/></g><g s:type="constant" transform="translate(504,390)" s:width="30" s:height="20" id="cell_00000000000"><text x="15" y="-4" class="nodelabel cell_00000000000" s:attribute="ref">0x0</text><s:alias val="$_constant_"/><rect width="30" height="20" fill="#745bff" class="cell_00000000000"/><g s:x="31" s:y="10" s:pid="Y"/></g><g s:type="constant" transform="translate(438,459)" s:width="30" s:height="20" id="cell_1000"><text x="15" y="-4" class="nodelabel cell_1000" s:attribute="ref">0x8</text><s:alias val="$_constant_"/><rect width="30" height="20" fill="#745bff" class="cell_1000"/><g s:x="31" s:y="10" s:pid="Y"/></g><g s:type="constant" transform="translate(438,524)" s:width="30" s:height="20" id="cell_0111"><text x="15" y="-4" class="nodelabel cell_0111" s:attribute="ref">0x7</text><s:alias val="$_constant_"/><rect width="30" height="20" fill="#745bff" class="cell_0111"/><g s:x="31" s:y="10" s:pid="Y"/></g><g s:type="constant" transform="translate(438,589)" s:width="30" s:height="20" id="cell_0110"><text x="15" y="-4" class="nodelabel cell_0110" s:attribute="ref">0x6</text><s:alias val="$_constant_"/><rect width="30" height="20" fill="#745bff" class="cell_0110"/><g s:x="31" s:y="10" s:pid="Y"/></g><g s:type="constant" transform="translate(438,654)" s:width="30" s:height="20" id="cell_0101"><text x="15" y="-4" class="nodelabel cell_0101" s:attribute="ref">0x5</text><s:alias val="$_constant_"/><rect width="30" height="20" fill="#745bff" class="cell_0101"/><g s:x="31" s:y="10" s:pid="Y"/></g><g s:type="constant" transform="translate(438,784)" s:width="30" s:height="20" id="cell_0100"><text x="15" y="-4" class="nodelabel cell_0100" s:attribute="ref">0x4</text><s:alias val="$_constant_"/><rect width="30" height="20" fill="#745bff" class="cell_0100"/><g s:x="31" s:y="10" s:pid="Y"/></g><g s:type="constant" transform="translate(438,849)" s:width="30" s:height="20" id="cell_0011"><text x="15" y="-4" class="nodelabel cell_0011" s:attribute="ref">0x3</text><s:alias val="$_constant_"/><rect width="30" height="20" fill="#745bff" class="cell_0011"/><g s:x="31" s:y="10" s:pid="Y"/></g><g s:type="constant" transform="translate(438,914)" s:width="30" s:height="20" id="cell_0010"><text x="15" y="-4" class="nodelabel cell_0010" s:attribute="ref">0x2</text><s:alias val="$_constant_"/><rect width="30" height="20" fill="#745bff" class="cell_0010"/><g s:x="31" s:y="10" s:pid="Y"/></g><g s:type="constant" transform="translate(438,979)" s:width="30" s:height="20" id="cell_0001"><text x="15" y="-4" class="nodelabel cell_0001" s:attribute="ref">0x1</text><s:alias val="$_constant_"/><rect width="30" height="20" fill="#745bff" class="cell_0001"/><g s:x="31" s:y="10" s:pid="Y"/></g><g s:type="join" transform="translate(292,318)" s:width="5" s:height="40" id="cell_$join$,8,9,10,11,12,13,63,64,"><rect width="5" height="40" class="splitjoinBody" s:generic="body"/><s:alias val="$_join_"/><g s:x="5" s:y="20" s:pid="out"/><g transform="translate(-1,10)" s:x="-1" s:y="10" s:pid="in0"><text x="-3" y="-4" class="inputPortLabel">0:5</text></g><g transform="translate(-1,30)" s:x="-1" s:y="10" s:pid="in0"><text x="-3" y="-4" class="inputPortLabel">6:7</text></g></g><g s:type="join" transform="translate(397,235.5)" s:width="5" s:height="40" id="cell_$join$,9,10,11,12,13,65,66,67,"><rect width="5" height="40" class="splitjoinBody" s:generic="body"/><s:alias val="$_join_"/><g s:x="5" s:y="20" s:pid="out"/><g transform="translate(-1,10)" s:x="-1" s:y="10" s:pid="in0"><text x="-3" y="-4" class="inputPortLabel">0:4</text></g><g transform="translate(-1,30)" s:x="-1" s:y="10" s:pid="in0"><text x="-3" y="-4" class="inputPortLabel">5:7</text></g></g><g s:type="join" transform="translate(292,126)" s:width="5" s:height="40" id="cell_$join$,7,8,9,10,11,12,13,68,"><rect width="5" height="40" class="splitjoinBody" s:generic="body"/><s:alias val="$_join_"/><g s:x="5" s:y="20" s:pid="out"/><g transform="translate(-1,10)" s:x="-1" s:y="10" s:pid="in0"><text x="-3" y="-4" class="inputPortLabel">0:6</text></g><g transform="translate(-1,30)" s:x="-1" s:y="10" s:pid="in0"><text x="-3" y="-4" class="inputPortLabel">7</text></g></g><g s:type="join" transform="translate(711,229.5)" s:width="5" s:height="40" id="cell_$join$,6,7,8,9,10,11,12,13,46,47,48,49,50,51,52,53,38,39,40,41,42,43,44,45,30,31,32,33,34,35,36,37,7,8,9,10,11,12,13,68,22,23,24,25,26,27,28,29,8,9,10,11,12,13,63,64,9,10,11,12,13,89,90,91,92,93,94,95,96,97,98,99,"><rect width="5" height="180" class="splitjoinBody" s:generic="body"/><s:alias val="$_join_"/><g s:x="5" s:y="20" s:pid="out"/><g transform="translate(-1,10)" s:x="-1" s:y="10" s:pid="in0"><text x="-3" y="-4" class="inputPortLabel">0:7</text></g><g transform="translate(-1,30)" s:x="-1" s:y="10" s:pid="in0"><text x="-3" y="-4" class="inputPortLabel">8:15</text></g><g transform="translate(-1,50)" s:x="-1" s:y="10" s:pid="in0"><text x="-3" y="-4" class="inputPortLabel">16:23</text></g><g transform="translate(-1,70)" s:x="-1" s:y="10" s:pid="in0"><text x="-3" y="-4" class="inputPortLabel">24:31</text></g><g transform="translate(-1,90)" s:x="-1" s:y="10" s:pid="in0"><text x="-3" y="-4" class="inputPortLabel">32:39</text></g><g transform="translate(-1,110)" s:x="-1" s:y="10" s:pid="in0"><text x="-3" y="-4" class="inputPortLabel">40:47</text></g><g transform="translate(-1,130)" s:x="-1" s:y="10" s:pid="in0"><text x="-3" y="-4" class="inputPortLabel">48:55</text></g><g transform="translate(-1,150)" s:x="-1" s:y="10" s:pid="in0"><text x="-3" y="-4" class="inputPortLabel">56:60</text></g><g transform="translate(-1,170)" s:x="-1" s:y="10" s:pid="in0"><text x="-3" y="-4" class="inputPortLabel">61:71</text></g></g><g s:type="join" transform="translate(709.6,868.5)" s:width="5" s:height="40" id="cell_$join$,54,55,56,57,58,59,60,61,62,"><rect width="5" height="180" class="splitjoinBody" s:generic="body"/><s:alias val="$_join_"/><g s:x="5" s:y="20" s:pid="out"/><g transform="translate(-1,10)" s:x="-1" s:y="10" s:pid="in0"><text x="-3" y="-4" class="inputPortLabel">0</text></g><g transform="translate(-1,30)" s:x="-1" s:y="10" s:pid="in0"><text x="-3" y="-4" class="inputPortLabel">1</text></g><g transform="translate(-1,50)" s:x="-1" s:y="10" s:pid="in0"><text x="-3" y="-4" class="inputPortLabel">2</text></g><g transform="translate(-1,70)" s:x="-1" s:y="10" s:pid="in0"><text x="-3" y="-4" class="inputPortLabel">3</text></g><g transform="translate(-1,90)" s:x="-1" s:y="10" s:pid="in0"><text x="-3" y="-4" class="inputPortLabel">4</text></g><g transform="translate(-1,110)" s:x="-1" s:y="10" s:pid="in0"><text x="-3" y="-4" class="inputPortLabel">5</text></g><g transform="translate(-1,130)" s:x="-1" s:y="10" s:pid="in0"><text x="-3" y="-4" class="inputPortLabel">6</text></g><g transform="translate(-1,150)" s:x="-1" s:y="10" s:pid="in0"><text x="-3" y="-4" class="inputPortLabel">7</text></g><g transform="translate(-1,170)" s:x="-1" s:y="10" s:pid="in0"><text x="-3" y="-4" class="inputPortLabel">8</text></g></g><g s:type="split" transform="translate(146,233.5)" s:width="5" s:height="40" id="cell_$split$,6,7,8,9,10,11,12,13,"><rect width="5" height="60" class="splitjoinBody" s:generic="body"/><s:alias val="$_split_"/><g s:x="-1" s:y="20" s:pid="in"/><g transform="translate(5,10)" s:x="5" s:y="10" s:pid="out0"><text x="5" y="-4">2:7</text></g><g transform="translate(5,30)" s:x="5" s:y="10" s:pid="out0"><text x="5" y="-4">3:7</text></g><g transform="translate(5,50)" s:x="5" s:y="10" s:pid="out0"><text x="5" y="-4">1:7</text></g></g><line x1="298" x2="352" y1="338.5" y2="338.5" class="net_8,9,10,11,12,13,63,64 width_8" style="stroke-width: 2"/><line x1="352" x2="352" y1="338.5" y2="303.5" class="net_8,9,10,11,12,13,63,64 width_8" style="stroke-width: 2"/><circle cx="352" cy="338.5" r="3" style="fill:#000" class="net_8,9,10,11,12,13,63,64 width_8"/><line x1="352" x2="508" y1="303.5" y2="303.5" class="net_8,9,10,11,12,13,63,64 width_8" style="stroke-width: 2"/><line x1="298" x2="313" y1="338.5" y2="338.5" class="net_8,9,10,11,12,13,63,64 width_8" style="stroke-width: 2"/><line x1="313" x2="313" y1="338.5" y2="102.5" class="net_8,9,10,11,12,13,63,64 width_8" style="stroke-width: 2"/><circle cx="313" cy="338.5" r="3" style="fill:#000" class="net_8,9,10,11,12,13,63,64 width_8"/><line x1="313" x2="379" y1="102.5" y2="102.5" class="net_8,9,10,11,12,13,63,64 width_8" style="stroke-width: 2"/><line x1="298" x2="611" y1="338.5" y2="338.5" class="net_8,9,10,11,12,13,63,64 width_8" style="stroke-width: 2"/><line x1="611" x2="611" y1="338.5" y2="360" class="net_8,9,10,11,12,13,63,64 width_8" style="stroke-width: 2"/><line x1="611" x2="710" y1="360" y2="360" class="net_8,9,10,11,12,13,63,64 width_8" style="stroke-width: 2"/><line x1="403" x2="423" y1="256" y2="256" class="net_9,10,11,12,13,65,66,67 width_8" style="stroke-width: 2"/><line x1="423" x2="423" y1="256" y2="318.5" class="net_9,10,11,12,13,65,66,67 width_8" style="stroke-width: 2"/><circle cx="423" cy="256" r="3" style="fill:#000" class="net_9,10,11,12,13,65,66,67 width_8"/><line x1="423" x2="508" y1="318.5" y2="318.5" class="net_9,10,11,12,13,65,66,67 width_8" style="stroke-width: 2"/><line x1="403" x2="508" y1="256" y2="256" class="net_9,10,11,12,13,65,66,67 width_8" style="stroke-width: 2"/><line x1="403" x2="423" y1="256" y2="256" class="net_9,10,11,12,13,65,66,67 width_8" style="stroke-width: 2"/><line x1="423" x2="423" y1="256" y2="51" class="net_9,10,11,12,13,65,66,67 width_8" style="stroke-width: 2"/><line x1="423" x2="508" y1="51" y2="51" class="net_9,10,11,12,13,65,66,67 width_8" style="stroke-width: 2"/><line x1="298" x2="479" y1="146.5" y2="146.5" class="net_7,8,9,10,11,12,13,68 width_8" style="stroke-width: 2"/><line x1="479" x2="479" y1="146.5" y2="241" class="net_7,8,9,10,11,12,13,68 width_8" style="stroke-width: 2"/><line x1="479" x2="508" y1="241" y2="241" class="net_7,8,9,10,11,12,13,68 width_8" style="stroke-width: 2"/><line x1="298" x2="323" y1="146.5" y2="146.5" class="net_7,8,9,10,11,12,13,68 width_8" style="stroke-width: 2"/><line x1="323" x2="323" y1="146.5" y2="82.5" class="net_7,8,9,10,11,12,13,68 width_8" style="stroke-width: 2"/><line x1="323" x2="352" y1="82.5" y2="82.5" class="net_7,8,9,10,11,12,13,68 width_8" style="stroke-width: 2"/><line x1="352" x2="352" y1="82.5" y2="87.5" class="net_7,8,9,10,11,12,13,68 width_8" style="stroke-width: 2"/><circle cx="323" cy="146.5" r="3" style="fill:#000" class="net_7,8,9,10,11,12,13,68 width_8"/><line x1="352" x2="379" y1="87.5" y2="87.5" class="net_7,8,9,10,11,12,13,68 width_8" style="stroke-width: 2"/><line x1="298" x2="323" y1="146.5" y2="146.5" class="net_7,8,9,10,11,12,13,68 width_8" style="stroke-width: 2"/><line x1="323" x2="323" y1="146.5" y2="286.5" class="net_7,8,9,10,11,12,13,68 width_8" style="stroke-width: 2"/><line x1="323" x2="631" y1="286.5" y2="286.5" class="net_7,8,9,10,11,12,13,68 width_8" style="stroke-width: 2"/><line x1="631" x2="631" y1="286.5" y2="320" class="net_7,8,9,10,11,12,13,68 width_8" style="stroke-width: 2"/><line x1="631" x2="710" y1="320" y2="320" class="net_7,8,9,10,11,12,13,68 width_8" style="stroke-width: 2"/><line x1="403" x2="413" y1="95" y2="95" class="net_38,39,40,41,42,43,44,45 width_8" style="stroke-width: 2"/><line x1="413" x2="413" y1="95" y2="31" class="net_38,39,40,41,42,43,44,45 width_8" style="stroke-width: 2"/><line x1="413" x2="479" y1="31" y2="31" class="net_38,39,40,41,42,43,44,45 width_8" style="stroke-width: 2"/><line x1="479" x2="479" y1="31" y2="36" class="net_38,39,40,41,42,43,44,45 width_8" style="stroke-width: 2"/><circle cx="413" cy="95" r="3" style="fill:#000" class="net_38,39,40,41,42,43,44,45 width_8"/><line x1="479" x2="508" y1="36" y2="36" class="net_38,39,40,41,42,43,44,45 width_8" style="stroke-width: 2"/><line x1="403" x2="651" y1="95" y2="95" class="net_38,39,40,41,42,43,44,45 width_8" style="stroke-width: 2"/><line x1="651" x2="651" y1="95" y2="280" class="net_38,39,40,41,42,43,44,45 width_8" style="stroke-width: 2"/><line x1="651" x2="710" y1="280" y2="280" class="net_38,39,40,41,42,43,44,45 width_8" style="stroke-width: 2"/><line x1="722" x2="771" y1="184.5" y2="184.5" class="net_78,79,80,81,82,83,84,85 width_8" style="stroke-width: 2"/><line x1="771" x2="771" y1="184.5" y2="300" class="net_78,79,80,81,82,83,84,85 width_8" style="stroke-width: 2"/><line x1="771" x2="796" y1="300" y2="300" class="net_78,79,80,81,82,83,84,85 width_8" style="stroke-width: 2"/><line x1="717" x2="796" y1="320" y2="320" class="net_6,7,8,9,10,11,12,13,46,47,48,49,50,51,52,53,38,39,40,41,42,43,44,45,30,31,32,33,34,35,36,37,7,8,9,10,11,12,13,68,22,23,24,25,26,27,28,29,8,9,10,11,12,13,63,64,9,10,11,12,13,89,90,91,92,93,94,95,96,97,98,99 width_72" style="stroke-width: 2"/><line x1="715.6" x2="809" y1="959" y2="959" class="net_54,55,56,57,58,59,60,61,62 width_9" style="stroke-width: 2"/><line x1="809" x2="809" y1="959" y2="328" class="net_54,55,56,57,58,59,60,61,62 width_9" style="stroke-width: 2"/><line x1="468" x2="479" y1="729" y2="729" class="net_2,3,4,5 width_4" style="stroke-width: 2"/><line x1="479" x2="479" y1="729" y2="449" class="net_2,3,4,5 width_4" style="stroke-width: 2"/><line x1="479" x2="545" y1="449" y2="449" class="net_2,3,4,5 width_4" style="stroke-width: 2"/><line x1="545" x2="545" y1="449" y2="454" class="net_2,3,4,5 width_4" style="stroke-width: 2"/><circle cx="479" cy="729" r="3" style="fill:#000" class="net_2,3,4,5 width_4"/><line x1="545" x2="574.3333333333334" y1="454" y2="454" class="net_2,3,4,5 width_4" style="stroke-width: 2"/><line x1="468" x2="479" y1="729" y2="729" class="net_2,3,4,5 width_4" style="stroke-width: 2"/><line x1="479" x2="479" y1="729" y2="514" class="net_2,3,4,5 width_4" style="stroke-width: 2"/><line x1="479" x2="545" y1="514" y2="514" class="net_2,3,4,5 width_4" style="stroke-width: 2"/><line x1="545" x2="545" y1="514" y2="519" class="net_2,3,4,5 width_4" style="stroke-width: 2"/><circle cx="479" cy="514" r="3" style="fill:#000" class="net_2,3,4,5 width_4"/><line x1="545" x2="574.3333333333334" y1="519" y2="519" class="net_2,3,4,5 width_4" style="stroke-width: 2"/><line x1="468" x2="479" y1="729" y2="729" class="net_2,3,4,5 width_4" style="stroke-width: 2"/><line x1="479" x2="479" y1="729" y2="579" class="net_2,3,4,5 width_4" style="stroke-width: 2"/><line x1="479" x2="545" y1="579" y2="579" class="net_2,3,4,5 width_4" style="stroke-width: 2"/><line x1="545" x2="545" y1="579" y2="584" class="net_2,3,4,5 width_4" style="stroke-width: 2"/><circle cx="479" cy="579" r="3" style="fill:#000" class="net_2,3,4,5 width_4"/><line x1="545" x2="574.3333333333334" y1="584" y2="584" class="net_2,3,4,5 width_4" style="stroke-width: 2"/><line x1="468" x2="479" y1="729" y2="729" class="net_2,3,4,5 width_4" style="stroke-width: 2"/><line x1="479" x2="479" y1="729" y2="644" class="net_2,3,4,5 width_4" style="stroke-width: 2"/><line x1="479" x2="545" y1="644" y2="644" class="net_2,3,4,5 width_4" style="stroke-width: 2"/><line x1="545" x2="545" y1="644" y2="649" class="net_2,3,4,5 width_4" style="stroke-width: 2"/><circle cx="479" cy="644" r="3" style="fill:#000" class="net_2,3,4,5 width_4"/><line x1="545" x2="574.3333333333334" y1="649" y2="649" class="net_2,3,4,5 width_4" style="stroke-width: 2"/><line x1="468" x2="545" y1="729" y2="729" class="net_2,3,4,5 width_4" style="stroke-width: 2"/><line x1="545" x2="545" y1="729" y2="779" class="net_2,3,4,5 width_4" style="stroke-width: 2"/><line x1="545" x2="574.3333333333334" y1="779" y2="779" class="net_2,3,4,5 width_4" style="stroke-width: 2"/><line x1="468" x2="479" y1="729" y2="729" class="net_2,3,4,5 width_4" style="stroke-width: 2"/><line x1="479" x2="479" y1="729" y2="839" class="net_2,3,4,5 width_4" style="stroke-width: 2"/><line x1="479" x2="545" y1="839" y2="839" class="net_2,3,4,5 width_4" style="stroke-width: 2"/><line x1="545" x2="545" y1="839" y2="844" class="net_2,3,4,5 width_4" style="stroke-width: 2"/><circle cx="479" cy="839" r="3" style="fill:#000" class="net_2,3,4,5 width_4"/><line x1="545" x2="574.3333333333334" y1="844" y2="844" class="net_2,3,4,5 width_4" style="stroke-width: 2"/><line x1="468" x2="479" y1="729" y2="729" class="net_2,3,4,5 width_4" style="stroke-width: 2"/><line x1="479" x2="479" y1="729" y2="904" class="net_2,3,4,5 width_4" style="stroke-width: 2"/><line x1="479" x2="545" y1="904" y2="904" class="net_2,3,4,5 width_4" style="stroke-width: 2"/><line x1="545" x2="545" y1="904" y2="909" class="net_2,3,4,5 width_4" style="stroke-width: 2"/><circle cx="479" cy="904" r="3" style="fill:#000" class="net_2,3,4,5 width_4"/><line x1="545" x2="574.3333333333334" y1="909" y2="909" class="net_2,3,4,5 width_4" style="stroke-width: 2"/><line x1="468" x2="479" y1="729" y2="729" class="net_2,3,4,5 width_4" style="stroke-width: 2"/><line x1="479" x2="479" y1="729" y2="969" class="net_2,3,4,5 width_4" style="stroke-width: 2"/><line x1="479" x2="545" y1="969" y2="969" class="net_2,3,4,5 width_4" style="stroke-width: 2"/><line x1="545" x2="545" y1="969" y2="974" class="net_2,3,4,5 width_4" style="stroke-width: 2"/><circle cx="479" cy="969" r="3" style="fill:#000" class="net_2,3,4,5 width_4"/><line x1="545" x2="574.3333333333334" y1="974" y2="974" class="net_2,3,4,5 width_4" style="stroke-width: 2"/><line x1="468" x2="479" y1="729" y2="729" class="net_2,3,4,5 width_4" style="stroke-width: 2"/><line x1="479" x2="479" y1="729" y2="1039" class="net_2,3,4,5 width_4" style="stroke-width: 2"/><line x1="479" x2="570" y1="1039" y2="1039" class="net_2,3,4,5 width_4" style="stroke-width: 2"/><line x1="469" x2="574.3333333333334" y1="469" y2="469" class="net_100,101,102,103 width_4" style="stroke-width: 2"/><line x1="469" x2="574.3333333333334" y1="534" y2="534" class="net_104,105,106,107 width_4" style="stroke-width: 2"/><line x1="469" x2="574.3333333333334" y1="599" y2="599" class="net_108,109,110,111 width_4" style="stroke-width: 2"/><line x1="469" x2="574.3333333333334" y1="664" y2="664" class="net_112,113,114,115 width_4" style="stroke-width: 2"/><line x1="469" x2="574.3333333333334" y1="794" y2="794" class="net_116,117,118,119 width_4" style="stroke-width: 2"/><line x1="469" x2="574.3333333333334" y1="859" y2="859" class="net_120,121,122,123 width_4" style="stroke-width: 2"/><line x1="469" x2="574.3333333333334" y1="924" y2="924" class="net_124,125,126,127 width_4" style="stroke-width: 2"/><line x1="469" x2="574.3333333333334" y1="989" y2="989" class="net_128,129,130,131 width_4" style="stroke-width: 2"/><line x1="821.5" x2="895.5" y1="310" y2="310" class="net_14,15,16,17,18,19,20,21 width_8" style="stroke-width: 2"/><line x1="152" x2="247" y1="244" y2="244" class="net_8,9,10,11,12,13 width_6" style="stroke-width: 2"/><line x1="247" x2="247" y1="244" y2="328.5" class="net_8,9,10,11,12,13 width_6" style="stroke-width: 2"/><line x1="247" x2="291" y1="328.5" y2="328.5" class="net_8,9,10,11,12,13 width_6" style="stroke-width: 2"/><line x1="171" x2="291" y1="348.5" y2="348.5" class="net_63,64 width_2" style="stroke-width: 2"/><line x1="152" x2="191" y1="264" y2="264" class="net_9,10,11,12,13 width_5" style="stroke-width: 2"/><line x1="191" x2="191" y1="264" y2="205" class="net_9,10,11,12,13 width_5" style="stroke-width: 2"/><line x1="191" x2="352" y1="205" y2="205" class="net_9,10,11,12,13 width_5" style="stroke-width: 2"/><line x1="352" x2="352" y1="205" y2="246" class="net_9,10,11,12,13 width_5" style="stroke-width: 2"/><circle cx="191" cy="264" r="3" style="fill:#000" class="net_9,10,11,12,13 width_5"/><line x1="352" x2="396" y1="246" y2="246" class="net_9,10,11,12,13 width_5" style="stroke-width: 2"/><line x1="152" x2="191" y1="264" y2="264" class="net_9,10,11,12,13 width_5" style="stroke-width: 2"/><line x1="191" x2="191" y1="264" y2="369" class="net_9,10,11,12,13 width_5" style="stroke-width: 2"/><line x1="191" x2="611" y1="369" y2="369" class="net_9,10,11,12,13 width_5" style="stroke-width: 2"/><line x1="611" x2="611" y1="369" y2="380" class="net_9,10,11,12,13 width_5" style="stroke-width: 2"/><line x1="611" x2="710" y1="380" y2="380" class="net_9,10,11,12,13 width_5" style="stroke-width: 2"/><line x1="303" x2="396" y1="266" y2="266" class="net_65,66,67 width_3" style="stroke-width: 2"/><line x1="152" x2="181" y1="284" y2="284" class="net_7,8,9,10,11,12,13 width_7" style="stroke-width: 2"/><line x1="181" x2="181" y1="284" y2="95.5" class="net_7,8,9,10,11,12,13 width_7" style="stroke-width: 2"/><line x1="181" x2="247" y1="95.5" y2="95.5" class="net_7,8,9,10,11,12,13 width_7" style="stroke-width: 2"/><line x1="247" x2="247" y1="95.5" y2="136.5" class="net_7,8,9,10,11,12,13 width_7" style="stroke-width: 2"/><line x1="247" x2="291" y1="136.5" y2="136.5" class="net_7,8,9,10,11,12,13 width_7" style="stroke-width: 2"/><line x1="237" x2="291" y1="156.5" y2="156.5" class="net_68 width_1" style="stroke-width: 1"/><line x1="42" x2="76" y1="264" y2="264" class="net_6,7,8,9,10,11,12,13 width_8" style="stroke-width: 2"/><line x1="76" x2="76" y1="264" y2="16" class="net_6,7,8,9,10,11,12,13 width_8" style="stroke-width: 2"/><line x1="76" x2="671" y1="16" y2="16" class="net_6,7,8,9,10,11,12,13 width_8" style="stroke-width: 2"/><line x1="671" x2="671" y1="16" y2="240" class="net_6,7,8,9,10,11,12,13 width_8" style="stroke-width: 2"/><circle cx="76" cy="264" r="3" style="fill:#000" class="net_6,7,8,9,10,11,12,13 width_8"/><line x1="671" x2="710" y1="240" y2="240" class="net_6,7,8,9,10,11,12,13 width_8" style="stroke-width: 2"/><line x1="42" x2="145" y1="264" y2="264" class="net_6,7,8,9,10,11,12,13 width_8" style="stroke-width: 2"/><line x1="532" x2="661" y1="43.5" y2="43.5" class="net_46,47,48,49,50,51,52,53 width_8" style="stroke-width: 2"/><line x1="661" x2="661" y1="43.5" y2="260" class="net_46,47,48,49,50,51,52,53 width_8" style="stroke-width: 2"/><line x1="661" x2="710" y1="260" y2="260" class="net_46,47,48,49,50,51,52,53 width_8" style="stroke-width: 2"/><line x1="532" x2="641" y1="248.5" y2="248.5" class="net_30,31,32,33,34,35,36,37 width_8" style="stroke-width: 2"/><line x1="641" x2="641" y1="248.5" y2="300" class="net_30,31,32,33,34,35,36,37 width_8" style="stroke-width: 2"/><line x1="641" x2="710" y1="300" y2="300" class="net_30,31,32,33,34,35,36,37 width_8" style="stroke-width: 2"/><line x1="532" x2="621" y1="311" y2="311" class="net_22,23,24,25,26,27,28,29 width_8" style="stroke-width: 2"/><line x1="621" x2="621" y1="311" y2="340" class="net_22,23,24,25,26,27,28,29 width_8" style="stroke-width: 2"/><line x1="621" x2="710" y1="340" y2="340" class="net_22,23,24,25,26,27,28,29 width_8" style="stroke-width: 2"/><line x1="535" x2="710" y1="400" y2="400" class="net_89,90,91,92,93,94,95,96,97,98,99 width_11" style="stroke-width: 2"/><line x1="597.3333333333334" x2="681" y1="461.5" y2="461.5" class="net_54 width_1" style="stroke-width: 1"/><line x1="681" x2="681" y1="461.5" y2="879" class="net_54 width_1" style="stroke-width: 1"/><line x1="681" x2="708.6" y1="879" y2="879" class="net_54 width_1" style="stroke-width: 1"/><line x1="597.3333333333334" x2="671" y1="526.5" y2="526.5" class="net_55 width_1" style="stroke-width: 1"/><line x1="671" x2="671" y1="526.5" y2="899" class="net_55 width_1" style="stroke-width: 1"/><line x1="671" x2="708.6" y1="899" y2="899" class="net_55 width_1" style="stroke-width: 1"/><line x1="597.3333333333334" x2="661" y1="591.5" y2="591.5" class="net_56 width_1" style="stroke-width: 1"/><line x1="661" x2="661" y1="591.5" y2="919" class="net_56 width_1" style="stroke-width: 1"/><line x1="661" x2="708.6" y1="919" y2="919" class="net_56 width_1" style="stroke-width: 1"/><line x1="597.3333333333334" x2="651" y1="656.5" y2="656.5" class="net_57 width_1" style="stroke-width: 1"/><line x1="651" x2="651" y1="656.5" y2="939" class="net_57 width_1" style="stroke-width: 1"/><line x1="651" x2="708.6" y1="939" y2="939" class="net_57 width_1" style="stroke-width: 1"/><line x1="597.3333333333334" x2="641" y1="786.5" y2="786.5" class="net_58 width_1" style="stroke-width: 1"/><line x1="641" x2="641" y1="786.5" y2="959" class="net_58 width_1" style="stroke-width: 1"/><line x1="641" x2="708.6" y1="959" y2="959" class="net_58 width_1" style="stroke-width: 1"/><line x1="597.3333333333334" x2="631" y1="851.5" y2="851.5" class="net_59 width_1" style="stroke-width: 1"/><line x1="631" x2="631" y1="851.5" y2="979" class="net_59 width_1" style="stroke-width: 1"/><line x1="631" x2="708.6" y1="979" y2="979" class="net_59 width_1" style="stroke-width: 1"/><line x1="597.3333333333334" x2="621" y1="916.5" y2="916.5" class="net_60 width_1" style="stroke-width: 1"/><line x1="621" x2="621" y1="916.5" y2="999" class="net_60 width_1" style="stroke-width: 1"/><line x1="621" x2="708.6" y1="999" y2="999" class="net_60 width_1" style="stroke-width: 1"/><line x1="597.3333333333334" x2="611" y1="981.5" y2="981.5" class="net_61 width_1" style="stroke-width: 1"/><line x1="611" x2="611" y1="981.5" y2="1019" class="net_61 width_1" style="stroke-width: 1"/><line x1="611" x2="708.6" y1="1019" y2="1019" class="net_61 width_1" style="stroke-width: 1"/><line x1="598" x2="708.6" y1="1039" y2="1039" class="net_62 width_1" style="stroke-width: 1"/><rect x="452.5" y="333.5" width="16" height="9" class="net_8,9,10,11,12,13,63,64 width_8 busLabel_8" style="fill: white; stroke: none"/><text x="451.5" y="341.5" class="net_8,9,10,11,12,13,63,64 width_8 busLabel_8">/8/</text><rect x="452.5" y="333.5" width="16" height="9" class="net_8,9,10,11,12,13,63,64 width_8 busLabel_8" style="fill: white; stroke: none"/><text x="451.5" y="341.5" class="net_8,9,10,11,12,13,63,64 width_8 busLabel_8">/8/</text><rect x="452.5" y="333.5" width="16" height="9" class="net_8,9,10,11,12,13,63,64 width_8 busLabel_8" style="fill: white; stroke: none"/><text x="451.5" y="341.5" class="net_8,9,10,11,12,13,63,64 width_8 busLabel_8">/8/</text><rect x="452.5" y="46" width="16" height="9" class="net_9,10,11,12,13,65,66,67 width_8 busLabel_8" style="fill: white; stroke: none"/><text x="451.5" y="54" class="net_9,10,11,12,13,65,66,67 width_8 busLabel_8">/8/</text><rect x="452.5" y="46" width="16" height="9" class="net_9,10,11,12,13,65,66,67 width_8 busLabel_8" style="fill: white; stroke: none"/><text x="451.5" y="54" class="net_9,10,11,12,13,65,66,67 width_8 busLabel_8">/8/</text><rect x="452.5" y="46" width="16" height="9" class="net_9,10,11,12,13,65,66,67 width_8 busLabel_8" style="fill: white; stroke: none"/><text x="451.5" y="54" class="net_9,10,11,12,13,65,66,67 width_8 busLabel_8">/8/</text><rect x="452.5" y="281.5" width="16" height="9" class="net_7,8,9,10,11,12,13,68 width_8 busLabel_8" style="fill: white; stroke: none"/><text x="451.5" y="289.5" class="net_7,8,9,10,11,12,13,68 width_8 busLabel_8">/8/</text><rect x="452.5" y="281.5" width="16" height="9" class="net_7,8,9,10,11,12,13,68 width_8 busLabel_8" style="fill: white; stroke: none"/><text x="451.5" y="289.5" class="net_7,8,9,10,11,12,13,68 width_8 busLabel_8">/8/</text><rect x="452.5" y="281.5" width="16" height="9" class="net_7,8,9,10,11,12,13,68 width_8 busLabel_8" style="fill: white; stroke: none"/><text x="451.5" y="289.5" class="net_7,8,9,10,11,12,13,68 width_8 busLabel_8">/8/</text><rect x="518.5" y="90" width="16" height="9" class="net_38,39,40,41,42,43,44,45 width_8 busLabel_8" style="fill: white; stroke: none"/><text x="517.5" y="98" class="net_38,39,40,41,42,43,44,45 width_8 busLabel_8">/8/</text><rect x="518.5" y="90" width="16" height="9" class="net_38,39,40,41,42,43,44,45 width_8 busLabel_8" style="fill: white; stroke: none"/><text x="517.5" y="98" class="net_38,39,40,41,42,43,44,45 width_8 busLabel_8">/8/</text><rect x="758" y="179.5" width="16" height="9" class="net_78,79,80,81,82,83,84,85 width_8 busLabel_8" style="fill: white; stroke: none"/><text x="757" y="187.5" class="net_78,79,80,81,82,83,84,85 width_8 busLabel_8">/8/</text><rect x="758" y="315" width="22" height="9" class="net_6,7,8,9,10,11,12,13,46,47,48,49,50,51,52,53,38,39,40,41,42,43,44,45,30,31,32,33,34,35,36,37,7,8,9,10,11,12,13,68,22,23,24,25,26,27,28,29,8,9,10,11,12,13,63,64,9,10,11,12,13,89,90,91,92,93,94,95,96,97,98,99 width_72 busLabel_72" style="fill: white; stroke: none"/><text x="757" y="323" class="net_6,7,8,9,10,11,12,13,46,47,48,49,50,51,52,53,38,39,40,41,42,43,44,45,30,31,32,33,34,35,36,37,7,8,9,10,11,12,13,68,22,23,24,25,26,27,28,29,8,9,10,11,12,13,63,64,9,10,11,12,13,89,90,91,92,93,94,95,96,97,98,99 width_72 busLabel_72">/72/</text><rect x="758" y="954" width="16" height="9" class="net_54,55,56,57,58,59,60,61,62 width_9 busLabel_9" style="fill: white; stroke: none"/><text x="757" y="962" class="net_54,55,56,57,58,59,60,61,62 width_9 busLabel_9">/9/</text><rect x="518.5" y="1034" width="16" height="9" class="net_2,3,4,5 width_4 busLabel_4" style="fill: white; stroke: none"/><text x="517.5" y="1042" class="net_2,3,4,5 width_4 busLabel_4">/4/</text><rect x="518.5" y="1034" width="16" height="9" class="net_2,3,4,5 width_4 busLabel_4" style="fill: white; stroke: none"/><text x="517.5" y="1042" class="net_2,3,4,5 width_4 busLabel_4">/4/</text><rect x="518.5" y="1034" width="16" height="9" class="net_2,3,4,5 width_4 busLabel_4" style="fill: white; stroke: none"/><text x="517.5" y="1042" class="net_2,3,4,5 width_4 busLabel_4">/4/</text><rect x="518.5" y="1034" width="16" height="9" class="net_2,3,4,5 width_4 busLabel_4" style="fill: white; stroke: none"/><text x="517.5" y="1042" class="net_2,3,4,5 width_4 busLabel_4">/4/</text><rect x="518.5" y="1034" width="16" height="9" class="net_2,3,4,5 width_4 busLabel_4" style="fill: white; stroke: none"/><text x="517.5" y="1042" class="net_2,3,4,5 width_4 busLabel_4">/4/</text><rect x="518.5" y="1034" width="16" height="9" class="net_2,3,4,5 width_4 busLabel_4" style="fill: white; stroke: none"/><text x="517.5" y="1042" class="net_2,3,4,5 width_4 busLabel_4">/4/</text><rect x="518.5" y="1034" width="16" height="9" class="net_2,3,4,5 width_4 busLabel_4" style="fill: white; stroke: none"/><text x="517.5" y="1042" class="net_2,3,4,5 width_4 busLabel_4">/4/</text><rect x="518.5" y="1034" width="16" height="9" class="net_2,3,4,5 width_4 busLabel_4" style="fill: white; stroke: none"/><text x="517.5" y="1042" class="net_2,3,4,5 width_4 busLabel_4">/4/</text><rect x="518.5" y="1034" width="16" height="9" class="net_2,3,4,5 width_4 busLabel_4" style="fill: white; stroke: none"/><text x="517.5" y="1042" class="net_2,3,4,5 width_4 busLabel_4">/4/</text><rect x="518.5" y="464" width="16" height="9" class="net_100,101,102,103 width_4 busLabel_4" style="fill: white; stroke: none"/><text x="517.5" y="472" class="net_100,101,102,103 width_4 busLabel_4">/4/</text><rect x="518.5" y="529" width="16" height="9" class="net_104,105,106,107 width_4 busLabel_4" style="fill: white; stroke: none"/><text x="517.5" y="537" class="net_104,105,106,107 width_4 busLabel_4">/4/</text><rect x="518.5" y="594" width="16" height="9" class="net_108,109,110,111 width_4 busLabel_4" style="fill: white; stroke: none"/><text x="517.5" y="602" class="net_108,109,110,111 width_4 busLabel_4">/4/</text><rect x="518.5" y="659" width="16" height="9" class="net_112,113,114,115 width_4 busLabel_4" style="fill: white; stroke: none"/><text x="517.5" y="667" class="net_112,113,114,115 width_4 busLabel_4">/4/</text><rect x="518.5" y="789" width="16" height="9" class="net_116,117,118,119 width_4 busLabel_4" style="fill: white; stroke: none"/><text x="517.5" y="797" class="net_116,117,118,119 width_4 busLabel_4">/4/</text><rect x="518.5" y="854" width="16" height="9" class="net_120,121,122,123 width_4 busLabel_4" style="fill: white; stroke: none"/><text x="517.5" y="862" class="net_120,121,122,123 width_4 busLabel_4">/4/</text><rect x="518.5" y="919" width="16" height="9" class="net_124,125,126,127 width_4 busLabel_4" style="fill: white; stroke: none"/><text x="517.5" y="927" class="net_124,125,126,127 width_4 busLabel_4">/4/</text><rect x="518.5" y="984" width="16" height="9" class="net_128,129,130,131 width_4 busLabel_4" style="fill: white; stroke: none"/><text x="517.5" y="992" class="net_128,129,130,131 width_4 busLabel_4">/4/</text><rect x="857.5" y="305" width="16" height="9" class="net_14,15,16,17,18,19,20,21 width_8 busLabel_8" style="fill: white; stroke: none"/><text x="856.5" y="313" class="net_14,15,16,17,18,19,20,21 width_8 busLabel_8">/8/</text><rect x="220.5" y="239" width="16" height="9" class="net_8,9,10,11,12,13 width_6 busLabel_6" style="fill: white; stroke: none"/><text x="219.5" y="247" class="net_8,9,10,11,12,13 width_6 busLabel_6">/6/</text><rect x="220.5" y="343.5" width="16" height="9" class="net_63,64 width_2 busLabel_2" style="fill: white; stroke: none"/><text x="219.5" y="351.5" class="net_63,64 width_2 busLabel_2">/2/</text><rect x="389" y="364" width="16" height="9" class="net_9,10,11,12,13 width_5 busLabel_5" style="fill: white; stroke: none"/><text x="388" y="372" class="net_9,10,11,12,13 width_5 busLabel_5">/5/</text><rect x="389" y="364" width="16" height="9" class="net_9,10,11,12,13 width_5 busLabel_5" style="fill: white; stroke: none"/><text x="388" y="372" class="net_9,10,11,12,13 width_5 busLabel_5">/5/</text><rect x="339" y="261" width="16" height="9" class="net_65,66,67 width_3 busLabel_3" style="fill: white; stroke: none"/><text x="338" y="269" class="net_65,66,67 width_3 busLabel_3">/3/</text><rect x="220.5" y="90.5" width="16" height="9" class="net_7,8,9,10,11,12,13 width_7 busLabel_7" style="fill: white; stroke: none"/><text x="219.5" y="98.5" class="net_7,8,9,10,11,12,13 width_7 busLabel_7">/7/</text><rect x="102" y="259" width="16" height="9" class="net_6,7,8,9,10,11,12,13 width_8 busLabel_8" style="fill: white; stroke: none"/><text x="101" y="267" class="net_6,7,8,9,10,11,12,13 width_8 busLabel_8">/8/</text><rect x="102" y="259" width="16" height="9" class="net_6,7,8,9,10,11,12,13 width_8 busLabel_8" style="fill: white; stroke: none"/><text x="101" y="267" class="net_6,7,8,9,10,11,12,13 width_8 busLabel_8">/8/</text><rect x="584.5" y="38.5" width="16" height="9" class="net_46,47,48,49,50,51,52,53 width_8 busLabel_8" style="fill: white; stroke: none"/><text x="583.5" y="46.5" class="net_46,47,48,49,50,51,52,53 width_8 busLabel_8">/8/</text><rect x="584.5" y="243.5" width="16" height="9" class="net_30,31,32,33,34,35,36,37 width_8 busLabel_8" style="fill: white; stroke: none"/><text x="583.5" y="251.5" class="net_30,31,32,33,34,35,36,37 width_8 busLabel_8">/8/</text><rect x="584.5" y="306" width="16" height="9" class="net_22,23,24,25,26,27,28,29 width_8 busLabel_8" style="fill: white; stroke: none"/><text x="583.5" y="314" class="net_22,23,24,25,26,27,28,29 width_8 busLabel_8">/8/</text><rect x="584.5" y="395" width="22" height="9" class="net_89,90,91,92,93,94,95,96,97,98,99 width_11 busLabel_11" style="fill: white; stroke: none"/><text x="583.5" y="403" class="net_89,90,91,92,93,94,95,96,97,98,99 width_11 busLabel_11">/11/</text></svg>